<svg width="20" height="22" viewBox="0 0 20 22" fill="none" xmlns="http://www.w3.org/2000/svg">
<g id="Frame 1208">
<path id="image 214 (Traced)" fill-rule="evenodd" clip-rule="evenodd" d="M7.26629 0.0193435C6.97738 0.0589291 6.70844 0.180055 6.43693 0.392844C6.26186 0.530036 6.17066 0.569622 5.99004 0.586723C5.68833 0.615281 5.26076 0.828587 5.0208 1.07015L4.82681 1.26545L5.13219 1.5786C5.30014 1.75081 5.5307 2.01228 5.6445 2.15959C5.84107 2.41408 5.85837 2.42592 5.99192 2.3965C6.06923 2.37949 6.34878 2.36665 6.61317 2.36799C7.2627 2.37126 7.44917 2.4656 7.49672 2.81497C7.51787 2.97039 7.50437 3.00338 7.36208 3.14363L7.20397 3.29948L6.83321 3.26902C6.6293 3.25231 6.39524 3.25102 6.31304 3.26622C6.18246 3.29039 6.15986 3.31408 6.13364 3.45429C6.11717 3.54255 6.00564 3.84355 5.88586 4.12319C5.65228 4.66843 5.54447 5.07816 5.54324 5.42504C5.54206 5.76498 5.37417 5.95869 5.07866 5.96093C4.8595 5.96261 4.68509 5.8134 4.64209 5.58739C4.57199 5.21923 4.73176 4.49122 5.03727 3.78626C5.14688 3.53329 5.23659 3.29246 5.23659 3.25106C5.23659 3.13222 4.93248 2.70268 4.53865 2.26534C4.13821 1.82068 4.12384 1.81581 3.80176 2.01663C3.40797 2.26215 3.07405 2.76858 3.0224 3.1986L2.99653 3.41367L2.73056 3.45984C2.16852 3.55741 1.7035 3.90597 1.46066 4.41162C1.29337 4.76001 1.25172 5.27635 1.3646 5.60289C1.4031 5.71424 1.43461 5.80974 1.43461 5.81512C1.43461 5.82051 1.34992 5.87383 1.24635 5.93362C0.985932 6.08408 0.705459 6.39633 0.569681 6.68704C0.480399 6.87816 0.451557 7.01755 0.437441 7.32605L0.419393 7.72057L0.959799 7.89369C1.55881 8.08559 1.99997 8.16049 2.21201 8.10635C2.38921 8.06108 2.62301 7.83166 2.79109 7.53811C2.96668 7.23142 3.06745 7.1488 3.26607 7.1488C3.48261 7.1488 3.64361 7.25881 3.70785 7.45075C3.75622 7.59523 3.74845 7.63029 3.60397 7.91837C3.5181 8.08964 3.36637 8.32099 3.26682 8.43251L3.08581 8.63518L3.20148 8.77405C3.71943 9.39587 3.83646 9.76033 3.59047 9.98518C3.30833 10.243 3.08773 10.1613 2.72488 9.66453C2.39555 9.21358 2.14204 9.04602 1.73147 9.00786C1.58022 8.99377 1.21401 8.91339 0.917628 8.82914C0.621291 8.74493 0.370055 8.67601 0.359348 8.67601C0.321197 8.67601 0.245682 8.91667 0.214086 9.13906C0.170516 9.44545 0.222651 9.77945 0.361839 10.0851L0.477646 10.3395L0.3014 10.5997C-0.0211565 11.0758 -0.0915588 11.7056 0.122882 12.1969L0.215266 12.4087L0.464405 12.3934C1.05821 12.3567 1.73335 12.2818 2.10485 12.2114C2.55397 12.1262 2.6911 12.1477 2.8333 12.3259C2.98862 12.5206 2.91983 12.8509 2.70071 12.9626C2.44152 13.0947 1.25019 13.2843 0.671154 13.2856C0.263861 13.2865 0.22488 13.306 0.200233 13.5213C0.143159 14.0205 0.369443 14.5677 0.786831 14.94L1.05336 15.1778L1.00625 15.3621C0.921386 15.694 0.913258 15.8155 0.957833 16.0881C1.04292 16.6089 1.34638 17.037 1.81699 17.3001L2.04642 17.4284V17.7213C2.04642 18.2885 2.3019 18.8075 2.73498 19.12C3.15048 19.4198 3.1296 19.4252 3.68093 18.8719C3.95703 18.5948 4.23768 18.2655 4.33255 18.1072C4.48533 17.8525 4.49792 17.8074 4.48376 17.5652C4.46414 17.2288 4.25009 16.7931 3.88352 16.3433C3.6062 16.003 3.5642 15.8643 3.66943 15.6367C3.7175 15.5326 3.94173 15.3957 4.06397 15.3957C4.35987 15.3957 4.99724 16.1871 5.26072 16.8817C5.32365 17.0476 5.38116 17.1892 5.38854 17.1966C5.39597 17.2039 5.5172 17.1768 5.658 17.1364C5.99551 17.0395 6.54041 17.0396 6.87538 17.1366C7.25427 17.2463 7.70321 17.4908 7.88015 17.6839C8.11767 17.943 8.07606 18.2591 7.78506 18.4058C7.629 18.4845 7.49497 18.4618 7.26633 18.3181C6.83823 18.049 6.59382 17.9624 6.26003 17.9617C5.99332 17.9611 5.90889 17.9816 5.64821 18.1106C5.34003 18.263 5.33243 18.2707 4.88699 18.885C4.77883 19.0341 4.49495 19.3497 4.25616 19.5863L3.82199 20.0165L3.94567 20.2493C4.09281 20.5263 4.36922 20.7775 4.70676 20.941C4.93117 21.0496 4.9972 21.0602 5.46585 21.0631L5.97916 21.0663L6.11769 21.2723C6.65465 22.0714 7.82518 22.2423 8.60406 21.6354C8.72555 21.5409 8.89069 21.3621 8.9711 21.2381C9.26997 20.7776 9.25708 20.9959 9.25708 16.4001C9.25708 14.1182 9.24668 12.2512 9.23396 12.2512C9.22129 12.2512 9.09766 12.3075 8.9593 12.3764C8.82095 12.4452 8.56984 12.5429 8.40129 12.5933L8.09481 12.6851L7.98136 12.9743C7.84628 13.3186 7.74206 13.7012 7.70404 13.992C7.66615 14.2817 7.49943 14.448 7.24684 14.448C7.10263 14.448 7.03782 14.4209 6.93158 14.3162C6.79947 14.186 6.79812 14.1801 6.82019 13.8316C6.83579 13.5856 6.89116 13.3357 7.00321 13.0057C7.09419 12.7378 7.14493 12.5264 7.12028 12.5183C7.01623 12.4842 6.55409 12.1627 6.38702 12.0083C6.10843 11.7508 6.08382 11.514 6.31234 11.2888C6.40044 11.202 6.47189 11.1743 6.6085 11.1743C6.75817 11.1743 6.82919 11.2076 7.02864 11.371C7.16066 11.4792 7.3855 11.6268 7.52832 11.6989L7.78794 11.83L8.04368 11.7599C8.2801 11.6952 8.77624 11.4716 9.11479 11.2772L9.25652 11.1959L9.25682 9.59566L9.25708 7.99548L8.93579 7.925C8.0987 7.74146 7.29592 7.09573 7.36544 6.66193C7.39739 6.46288 7.59876 6.30691 7.82395 6.30691C7.98097 6.30691 8.0266 6.33314 8.22666 6.53839C8.47077 6.78878 8.66944 6.9059 9.02765 7.01057L9.25708 7.0776V4.26637C9.25708 1.81556 9.24812 1.42539 9.18721 1.22319C8.94108 0.406283 8.13388 -0.0995856 7.26629 0.0193435ZM12.2045 0.0188696C11.7383 0.0837831 11.2834 0.373848 11.0262 0.770048C10.7382 1.21385 10.7429 1.15591 10.7429 4.26637V7.0776L10.9723 7.01057C11.3306 6.9059 11.5292 6.78878 11.7733 6.53839C11.9734 6.33314 12.019 6.30691 12.176 6.30691C12.4012 6.30691 12.6026 6.46288 12.6346 6.66193C12.7041 7.09573 11.9013 7.74146 11.0642 7.925L10.7429 7.99548V9.59988V11.2043L11.2127 11.4447C11.4711 11.577 11.8017 11.7177 11.9473 11.7576L12.2121 11.83L12.4757 11.6988C12.6207 11.6267 12.8445 11.4792 12.9731 11.371C13.1695 11.2057 13.2359 11.1743 13.3892 11.1743C13.5283 11.1743 13.5991 11.2015 13.6877 11.2888C13.9162 11.514 13.8916 11.7508 13.613 12.0083C13.4459 12.1627 12.9838 12.4842 12.8797 12.5183C12.8551 12.5264 12.9058 12.7378 12.9968 13.0057C13.1091 13.3363 13.1642 13.5855 13.1799 13.8329L13.2023 14.1869L13.0605 14.3175C12.7558 14.598 12.3528 14.4265 12.296 13.992C12.2579 13.7012 12.1537 13.3186 12.0186 12.9743L11.9052 12.6851L11.5987 12.5933C11.4302 12.5429 11.1791 12.4452 11.0407 12.3764C10.9023 12.3075 10.7787 12.2512 10.766 12.2512C10.7533 12.2512 10.7429 14.1182 10.7429 16.4001C10.7429 20.9959 10.73 20.7776 11.0289 21.2381C11.6762 22.2356 13.2226 22.2542 13.8823 21.2723L14.0208 21.0663L14.5342 21.0631C15.0028 21.0602 15.0688 21.0496 15.2932 20.941C15.6308 20.7775 15.9072 20.5263 16.0543 20.2493L16.178 20.0165L15.7438 19.5863C15.5051 19.3497 15.2212 19.0341 15.113 18.885C14.6676 18.2707 14.66 18.263 14.3518 18.1106C14.0911 17.9816 14.0067 17.9611 13.74 17.9617C13.4062 17.9624 13.1618 18.049 12.7337 18.3181C12.505 18.4618 12.371 18.4845 12.2149 18.4058C11.9239 18.2591 11.8823 17.943 12.1198 17.6839C12.2966 17.491 12.7452 17.2466 13.1246 17.1363C13.4492 17.042 14.0423 17.0421 14.3482 17.1364C14.4684 17.1735 14.5789 17.2041 14.5937 17.2043C14.6085 17.2046 14.6646 17.0837 14.7183 16.9356C14.8559 16.5566 15.0738 16.1826 15.3563 15.8403C15.7457 15.3685 16.0247 15.2873 16.2699 15.5744C16.4583 15.795 16.4241 15.9648 16.1152 16.3433C15.7526 16.7878 15.5461 17.2087 15.5203 17.5563C15.5012 17.8124 15.5103 17.8466 15.667 18.1072C15.7616 18.2646 16.0445 18.5962 16.3191 18.8719C16.8704 19.4252 16.8495 19.4198 17.265 19.12C17.6981 18.8075 17.9536 18.2885 17.9536 17.7213V17.4284L18.183 17.2993C18.8912 16.9006 19.2008 16.1612 18.9943 15.3621L18.9466 15.1778L19.2132 14.94C19.6306 14.5677 19.8568 14.0205 19.7998 13.5213C19.7751 13.306 19.7361 13.2865 19.3288 13.2856C18.7498 13.2843 17.5585 13.0947 17.2993 12.9626C17.1651 12.8942 17.0796 12.7325 17.0796 12.5474C17.0796 12.401 17.2814 12.1681 17.4149 12.1605C17.5717 12.1515 17.7609 12.1735 18.0191 12.2305C18.2611 12.284 18.9342 12.3563 19.5356 12.3934L19.7847 12.4087L19.8771 12.1969C20.0916 11.7056 20.0212 11.0758 19.6986 10.5997L19.5224 10.3395L19.6382 10.0851C19.7773 9.77945 19.8295 9.44545 19.7859 9.13906C19.7543 8.91667 19.6788 8.67601 19.6407 8.67601C19.6299 8.67601 19.3851 8.74299 19.0965 8.82488C18.8079 8.90672 18.4671 8.98598 18.3392 9.00092C17.8186 9.06174 17.5793 9.21367 17.2527 9.69076C16.9347 10.1552 16.6893 10.2409 16.4095 9.98518C16.1634 9.7602 16.2403 9.4868 16.7199 8.88225L16.9151 8.63617L16.7336 8.43298C16.6338 8.32125 16.4812 8.08826 16.3945 7.91527C16.2425 7.61224 16.239 7.59484 16.2984 7.43843C16.3744 7.23874 16.6153 7.1031 16.8166 7.14669C16.9557 7.1768 17.0167 7.24292 17.3122 7.68379C17.5736 8.07387 17.771 8.16924 18.1939 8.10979C18.3622 8.08615 18.743 7.98888 19.0402 7.89369L19.5806 7.72057L19.5626 7.32605C19.5484 7.01755 19.5196 6.87816 19.4303 6.68704C19.2945 6.39633 19.0141 6.08408 18.7537 5.93362C18.6501 5.87383 18.5654 5.82051 18.5654 5.81512C18.5654 5.80974 18.5969 5.71424 18.6354 5.60289C18.7483 5.27635 18.7066 4.76001 18.5393 4.41162C18.2965 3.90597 17.8315 3.55741 17.2694 3.45984L17.0035 3.41367L16.9776 3.1986C16.9259 2.76858 16.592 2.26215 16.1982 2.01663C15.8762 1.81581 15.8618 1.82068 15.4614 2.26534C15.0675 2.70268 14.7634 3.13222 14.7634 3.25106C14.7634 3.29246 14.8531 3.53329 14.9627 3.78626C15.2682 4.49122 15.428 5.21923 15.3579 5.58739C15.3149 5.8134 15.1405 5.96261 14.9213 5.96093C14.6258 5.95869 14.4579 5.76498 14.4568 5.42504C14.4555 5.07816 14.3477 4.66843 14.1141 4.12319C13.9944 3.84355 13.8828 3.54255 13.8664 3.45429C13.8401 3.31408 13.8175 3.29039 13.687 3.26622C13.6048 3.25102 13.3707 3.25231 13.1668 3.26902L12.796 3.29948L12.6379 3.14363C12.4956 3.00338 12.4821 2.97039 12.5033 2.81497C12.5508 2.4656 12.7373 2.37126 13.3868 2.36799C13.6512 2.36665 13.9308 2.37949 14.0081 2.3965C14.1416 2.42592 14.1589 2.41408 14.3555 2.15959C14.4693 2.01228 14.6999 1.75081 14.8678 1.5786L15.1732 1.26545L14.9792 1.07015C14.7407 0.830008 14.3115 0.615281 14.0137 0.587067C13.8328 0.569924 13.7384 0.527064 13.5163 0.361399C13.1175 0.0638827 12.6875 -0.0484129 12.2045 0.0188696Z" fill="white"/>
</g>
</svg>
