<svg width="13" height="13" viewBox="0 0 13 13" fill="none" xmlns="http://www.w3.org/2000/svg">
<g id="Frame">
<g id="Group">
<path id="Vector" d="M8.66729 11.2664V4.76646C8.66729 4.64663 8.57044 4.5498 8.45064 4.5498H4.55064C4.43081 4.5498 4.33398 4.64666 4.33398 4.76646V11.2664C4.33398 11.3863 4.43084 11.4831 4.55064 11.4831V11.6998C4.43081 11.6998 4.33398 11.7966 4.33398 11.9164V12.7831C4.33398 12.9029 4.43084 12.9997 4.55064 12.9997H8.45064C8.57047 12.9997 8.66729 12.9029 8.66729 12.7831V11.9165C8.66729 11.7966 8.57044 11.6998 8.45064 11.6998V11.4832C8.57044 11.4831 8.66729 11.3863 8.66729 11.2664Z" fill="white"/>
<path id="Vector_2" d="M4.76746 4.1167H8.23412C8.35395 4.1167 8.45078 4.01984 8.45078 3.90004V3.68339C8.45078 2.25903 7.77022 0.898365 6.63078 0.0433865C6.55365 -0.0144622 6.44791 -0.0144622 6.37078 0.0433865C5.23134 0.898365 4.55078 2.25901 4.55078 3.68339V3.90004C4.55081 4.01984 4.64763 4.1167 4.76746 4.1167Z" fill="white"/>
</g>
</g>
</svg>
