<svg width="18" height="16" viewBox="0 0 18 16" fill="none" xmlns="http://www.w3.org/2000/svg">
<g id="Group 333" opacity="0.45">
<path id="Vector" d="M18.0001 10.0524C18.0013 7.96112 17.1754 5.95421 15.7028 4.46939C15.6849 4.44259 15.6619 4.4196 15.6351 4.40177C14.15 2.93013 12.1438 2.10449 10.053 2.10449C7.96221 2.10449 5.956 2.93013 4.47085 4.40177C4.44325 4.41993 4.41966 4.44353 4.4015 4.47113C2.92635 5.96077 2.10028 7.9734 2.10353 10.0698C2.10677 12.1663 2.93908 14.1764 4.41884 15.6614C4.4591 15.7018 4.50693 15.7338 4.5596 15.7557C4.61226 15.7775 4.66871 15.7888 4.72573 15.7888C4.78274 15.7888 4.8392 15.7775 4.89186 15.7557C4.94452 15.7338 4.99235 15.7018 5.03262 15.6614L5.95156 14.7425C6.01258 14.6587 6.04157 14.5559 6.03329 14.4526C6.025 14.3493 5.97998 14.2524 5.9064 14.1794C5.83281 14.1065 5.73552 14.0623 5.63216 14.0549C5.5288 14.0475 5.42621 14.0774 5.34298 14.1391L4.74133 14.7407C3.69459 13.5595 3.07644 12.0599 2.98667 10.4841H3.83799C3.95296 10.4841 4.06321 10.4385 4.1445 10.3572C4.22579 10.2759 4.27146 10.1656 4.27146 10.0507C4.27146 9.93571 4.22579 9.82545 4.1445 9.74416C4.06321 9.66287 3.95296 9.61721 3.83799 9.61721H2.98667C3.08237 8.04189 3.7039 6.54424 4.75174 5.36406L5.34298 5.96397C5.42437 6.04537 5.53477 6.09109 5.64987 6.09109C5.76498 6.09109 5.87537 6.04537 5.95676 5.96397C6.03816 5.88258 6.08388 5.77219 6.08388 5.65708C6.08388 5.54197 6.03816 5.43158 5.95676 5.35019L5.35685 4.75028C6.53933 3.70065 8.04032 3.079 9.61867 2.98521V3.83653C9.61867 3.9515 9.66433 4.06175 9.74562 4.14304C9.82691 4.22433 9.93717 4.27 10.0521 4.27C10.1671 4.27 10.2773 4.22433 10.3586 4.14304C10.4399 4.06175 10.4856 3.9515 10.4856 3.83653V2.98521C12.0617 3.08102 13.5601 3.70319 14.7405 4.75201L14.1406 5.35192C14.0592 5.43332 14.0134 5.54371 14.0134 5.65882C14.0134 5.77392 14.0592 5.88431 14.1406 5.96571C14.222 6.0471 14.3323 6.09283 14.4475 6.09283C14.5626 6.09283 14.6729 6.0471 14.7543 5.96571L15.3543 5.36579C16.4017 6.54552 17.0232 8.04249 17.1193 9.61721H16.2663C16.1513 9.61721 16.041 9.66287 15.9598 9.74416C15.8785 9.82545 15.8328 9.93571 15.8328 10.0507C15.8328 10.1656 15.8785 10.2759 15.9598 10.3572C16.041 10.4385 16.1513 10.4841 16.2663 10.4841H17.1176C17.0264 12.0614 16.4057 13.5618 15.356 14.7425L14.7543 14.1408C14.6729 14.0594 14.5626 14.0137 14.4475 14.0137C14.3323 14.0137 14.222 14.0594 14.1406 14.1408C14.0592 14.2222 14.0134 14.3326 14.0134 14.4477C14.0134 14.5628 14.0592 14.6732 14.1406 14.7546L15.0595 15.6736C15.0998 15.7139 15.1476 15.746 15.2003 15.7678C15.2529 15.7897 15.3094 15.8009 15.3664 15.8009C15.4234 15.8009 15.4799 15.7897 15.5325 15.7678C15.5852 15.746 15.633 15.7139 15.6733 15.6736C16.4136 14.937 17.0004 14.061 17.3998 13.0961C17.7992 12.1312 18.0033 11.0967 18.0001 10.0524Z" fill="white"/>
<path id="Vector_2" d="M10.052 8.3065C9.73711 8.30524 9.42782 8.38975 9.15733 8.55097L7.30731 6.69401C7.22592 6.61262 7.11552 6.56689 7.00042 6.56689C6.88531 6.56689 6.77492 6.61262 6.69353 6.69401C6.61213 6.77541 6.56641 6.8858 6.56641 7.00091C6.56641 7.11601 6.61213 7.22641 6.69353 7.3078L8.55048 9.16476C8.3571 9.49707 8.27893 9.88397 8.32813 10.2653C8.37733 10.6466 8.55115 11.001 8.82256 11.2733C9.09396 11.5457 9.44775 11.7207 9.8289 11.7712C10.2101 11.8217 10.5972 11.7449 10.9302 11.5526C11.2632 11.3604 11.5233 11.0635 11.6701 10.7082C11.8169 10.3528 11.8422 9.95891 11.7421 9.5877C11.6419 9.21649 11.4219 8.88877 11.1163 8.65551C10.8106 8.42224 10.4365 8.2965 10.052 8.29783V8.3065ZM10.052 10.9316C9.87814 10.9316 9.70818 10.88 9.56362 10.7834C9.41906 10.6868 9.30639 10.5495 9.23985 10.3889C9.17332 10.2283 9.15591 10.0515 9.18983 9.88099C9.22375 9.71047 9.30747 9.55384 9.43041 9.4309C9.55335 9.30796 9.70998 9.22424 9.8805 9.19032C10.051 9.1564 10.2278 9.17381 10.3884 9.24034C10.549 9.30688 10.6863 9.41955 10.7829 9.56411C10.8795 9.70867 10.9311 9.87863 10.9311 10.0525C10.9306 10.2855 10.8378 10.5088 10.6731 10.6736C10.5083 10.8383 10.285 10.9311 10.052 10.9316Z" fill="white"/>
<path id="Vector_3" d="M3.92307 4.26327L3.96122 4.25287L4.00456 4.239L4.04618 4.21646L4.07912 4.19912C4.12644 4.16745 4.16709 4.1268 4.19875 4.07948C4.19875 4.06908 4.20916 4.05868 4.21609 4.04827C4.2335 4.02188 4.24585 3.99249 4.2525 3.96158C4.2525 3.94944 4.26117 3.93731 4.26464 3.92344C4.26741 3.89518 4.26741 3.86673 4.26464 3.83848V1.38681C4.26464 1.27184 4.21897 1.16159 4.13768 1.0803C4.05639 0.99901 3.94614 0.953342 3.83118 0.953342C3.71622 0.953342 3.60596 0.99901 3.52467 1.0803C3.44338 1.16159 3.39771 1.27184 3.39771 1.38681V2.79123L1.40205 0.788626C1.32041 0.709544 1.21097 0.665692 1.09731 0.666515C0.983657 0.667339 0.874869 0.712772 0.794385 0.793029C0.7139 0.873286 0.668159 0.981945 0.667014 1.0956C0.665869 1.20926 0.709411 1.31881 0.788262 1.40068L2.79086 3.40501H1.38644C1.27148 3.40501 1.16123 3.45068 1.07994 3.53197C0.998647 3.61326 0.952978 3.72351 0.952978 3.83848C0.952978 3.95344 0.998647 4.06369 1.07994 4.14498C1.16123 4.22627 1.27148 4.27194 1.38644 4.27194H3.83811C3.86665 4.27184 3.8951 4.26894 3.92307 4.26327Z" fill="white"/>
</g>
</svg>
