<svg width="18" height="18" viewBox="0 0 18 18" xmlns="http://www.w3.org/2000/svg">
<g id="doors 1" clip-path="url(#clip0_2_4397)">
<path id="Vector" d="M13.1226 9.67416V7.0912L15.5886 9.55727C15.7123 9.681 15.8744 9.74282 16.0365 9.74282C16.1986 9.74282 16.3608 9.681 16.4845 9.55727C16.7319 9.30989 16.7319 8.90881 16.4845 8.66152L13.1226 5.29952V4.91786V1.88762C13.1226 0.846769 12.2132 0 11.0956 0H6.23847C5.12085 0 4.2115 0.846769 4.2115 1.88762V4.91786V5.29952L0.849594 8.66152C0.602219 8.90889 0.602219 9.30998 0.849594 9.55727C0.973324 9.68091 1.13548 9.74282 1.29756 9.74282C1.45963 9.74282 1.62179 9.681 1.74552 9.55727L4.2115 7.0912V9.67424L0.849594 13.0363C0.602219 13.2837 0.602219 13.6848 0.849678 13.9322C0.973324 14.0559 1.13548 14.1177 1.29756 14.1177C1.45963 14.1177 1.62179 14.0559 1.74552 13.9322L4.2115 11.466V13.5757V15.4459C4.2115 16.4867 5.12085 17.3335 6.23847 17.3335H11.0956C12.2132 17.3335 13.1226 16.4867 13.1226 15.4459V13.5757V11.4659L15.5886 13.9321C15.7123 14.0558 15.8744 14.1176 16.0365 14.1176C16.1986 14.1176 16.3608 14.0558 16.4844 13.9321C16.7319 13.6847 16.7319 13.2837 16.4845 13.0362L13.1226 9.67416ZM11.8557 9.93682V12.9422H5.47836V9.93682C5.47836 9.93665 5.47836 9.93657 5.47836 9.9364V5.56236C5.47836 5.5621 5.47836 5.56176 5.47836 5.56151V5.55129H11.8557V5.56151C11.8557 5.56176 11.8557 5.5621 11.8557 5.56236V9.9364C11.8557 9.93648 11.8557 9.93665 11.8557 9.93682ZM6.23847 1.26686H11.0956C11.5077 1.26686 11.8557 1.55114 11.8557 1.88762V4.28443H5.47836V1.88762C5.47836 1.55114 5.82641 1.26686 6.23847 1.26686ZM11.0956 16.0665H6.23847C5.82641 16.0665 5.47836 15.7822 5.47836 15.4457V14.2091H11.8557V15.4458C11.8557 15.7823 11.5077 16.0665 11.0956 16.0665Z" />
</g>
<defs>
<clipPath id="clip0_2_4397">
<rect width="17.3333" height="17.3333"/>
</clipPath>
</defs>
</svg>
