<svg width="16" height="16" viewBox="0 0 16 16" xmlns="http://www.w3.org/2000/svg">
<g id="Frame">
<path id="Vector" d="M13.6562 5.65625C13.3974 5.65625 13.1875 5.86613 13.1875 6.125V6.59375H12.25V6.125C12.25 5.86613 12.0401 5.65625 11.7812 5.65625H11.0379L10.2377 4.85603C10.1498 4.76813 10.0306 4.71875 9.90625 4.71875H9.4375V3.78125H9.90625C10.1651 3.78125 10.375 3.57138 10.375 3.3125C10.375 3.05362 10.1651 2.84375 9.90625 2.84375H5.15625C4.89738 2.84375 4.6875 3.05362 4.6875 3.3125C4.6875 3.57138 4.89738 3.78125 5.15625 3.78125H5.625V4.71875H5.15625C5.03191 4.71875 4.91272 4.76813 4.82481 4.85603L4.02459 5.65625H2.34375C2.08488 5.65625 1.875 5.86613 1.875 6.125V8H0.9375V6.125C0.9375 5.86613 0.727625 5.65625 0.46875 5.65625C0.209875 5.65625 0 5.86613 0 6.125V10.8125C0 11.0714 0.209875 11.2812 0.46875 11.2812C0.727625 11.2812 0.9375 11.0714 0.9375 10.8125V8.9375H1.875V10.8125C1.875 11.0714 2.08488 11.2812 2.34375 11.2812H4.02459L5.76231 13.019C5.85022 13.1069 5.96941 13.1562 6.09375 13.1562H10.8438C11.0213 13.1562 11.1836 13.0559 11.263 12.8971L12.071 11.2812H13.1875V11.75C13.1875 12.0089 13.3974 12.2188 13.6562 12.2188C14.9486 12.2188 16 11.1673 16 9.875V8C16 6.70766 14.9486 5.65625 13.6562 5.65625ZM3.75 10.3438H2.8125V6.59375H3.75V10.3438ZM6.5625 3.78125H8.5V4.71875H6.5625V3.78125ZM11.3125 10.7018L10.554 12.2188H6.28791L4.6875 10.6183V6.31916L5.35041 5.65625C5.54106 5.65625 9.54397 5.65625 9.71206 5.65625L10.5123 6.45647C10.6002 6.54437 10.7194 6.59375 10.8438 6.59375H11.3125C11.3125 6.78541 11.3125 10.5493 11.3125 10.7018ZM13.1875 10.3438H12.25V7.53125H13.1875V10.3438ZM15.0625 9.875C15.0625 10.4861 14.6707 11.0075 14.125 11.2009C14.125 10.8717 14.125 6.79819 14.125 6.67409C14.6707 6.86756 15.0625 7.38888 15.0625 8.00003V9.875Z"/>
<path id="Vector_2" d="M8.96821 8.46888H7.85168L8.44999 7.27225C8.56577 7.04068 8.4719 6.75912 8.24037 6.64334C8.00881 6.52756 7.72724 6.62143 7.61146 6.85297L6.67396 8.72797C6.51849 9.03891 6.74481 9.40638 7.09321 9.40638H8.20974L7.61143 10.603C7.49565 10.8346 7.58953 11.1161 7.82106 11.2319C8.05271 11.3477 8.33424 11.2537 8.44996 11.0223L9.38746 9.14728C9.54293 8.83635 9.31662 8.46888 8.96821 8.46888Z"/>
</g>
</svg>
