<svg width="18" height="18" viewBox="0 0 18 18" fill="none" xmlns="http://www.w3.org/2000/svg">
<g id="engine (1) 2" clip-path="url(#clip0_2_4401)">
<g id="Group">
<g id="Group_2">
<path id="Vector" d="M15.1273 6.12744C14.8468 6.12744 14.6195 6.35481 14.6195 6.63525V7.14307H13.6038V6.63525C13.6038 6.35481 13.3765 6.12744 13.096 6.12744H12.2907L11.4238 5.26054C11.3286 5.16531 11.1995 5.11182 11.0648 5.11182H10.557V4.09619H11.0648C11.3452 4.09619 11.5726 3.86883 11.5726 3.58838C11.5726 3.30793 11.3452 3.08057 11.0648 3.08057H5.91895C5.6385 3.08057 5.41113 3.30793 5.41113 3.58838C5.41113 3.86883 5.6385 4.09619 5.91895 4.09619H6.42676V5.11182H5.91895C5.78424 5.11182 5.65512 5.16531 5.55989 5.26054L4.69299 6.12744H2.87207C2.59162 6.12744 2.36426 6.35481 2.36426 6.63525V8.6665H1.34863V6.63525C1.34863 6.35481 1.12127 6.12744 0.84082 6.12744C0.560372 6.12744 0.333008 6.35481 0.333008 6.63525V11.7134C0.333008 11.9938 0.560372 12.2212 0.84082 12.2212C1.12127 12.2212 1.34863 11.9938 1.34863 11.7134V9.68213H2.36426V11.7134C2.36426 11.9938 2.59162 12.2212 2.87207 12.2212H4.69299L6.57551 14.1037C6.67075 14.199 6.79987 14.2524 6.93457 14.2524H12.0804C12.2728 14.2524 12.4486 14.1438 12.5346 13.9717L13.4099 12.2212H14.6195V12.729C14.6195 13.0095 14.8468 13.2368 15.1273 13.2368C16.5273 13.2368 17.6663 12.0978 17.6663 10.6978V8.6665C17.6663 7.26647 16.5273 6.12744 15.1273 6.12744ZM4.39551 11.2056H3.37988V7.14307H4.39551V11.2056ZM7.44238 4.09619H9.54134V5.11182H7.44238V4.09619ZM12.5882 11.5935L11.7665 13.2368H7.14491L5.41113 11.503V6.84559L6.12928 6.12744C6.33583 6.12744 10.6723 6.12744 10.8544 6.12744L11.7213 6.99435C11.8166 7.08958 11.9457 7.14307 12.0804 7.14307H12.5882C12.5882 7.35069 12.5882 11.4282 12.5882 11.5935ZM14.6195 11.2056H13.6038V8.15869H14.6195V11.2056ZM16.6507 10.6978C16.6507 11.3598 16.2262 11.9246 15.6351 12.1342C15.6351 11.7776 15.6351 7.36454 15.6351 7.23011C16.2262 7.4397 16.6507 8.00445 16.6507 8.66654V10.6978Z" fill="white"/>
</g>
</g>
<g id="Group_3">
<g id="Group_4">
<path id="Vector_2" d="M10.0483 9.17445H8.83875L9.48692 7.87811C9.61235 7.62725 9.51066 7.32222 9.25983 7.19679C9.00897 7.07136 8.70395 7.17306 8.57852 7.42388L7.56289 9.45514C7.39447 9.79199 7.63964 10.1901 8.01708 10.1901H9.22665L8.57848 11.4864C8.45305 11.7373 8.55475 12.0423 8.80558 12.1677C9.05654 12.2932 9.36153 12.1914 9.48689 11.9407L10.5025 9.9094C10.6709 9.57255 10.4258 9.17445 10.0483 9.17445Z" fill="white"/>
</g>
</g>
</g>
<defs>
<clipPath id="clip0_2_4401">
<rect width="17.3333" height="17.3333" fill="white" transform="translate(0.333008)"/>
</clipPath>
</defs>
</svg>
