<svg width="48" height="48" viewBox="0 0 48 48" fill="none" xmlns="http://www.w3.org/2000/svg">
<g id="Frame 1186">
<g id="image 180 (Traced)" filter="url(#filter0_d_2_4483)">
<path fill-rule="evenodd" clip-rule="evenodd" d="M22.6825 13.0495C18.9829 13.5134 15.7571 15.7998 14.1263 19.114C13.64 20.1024 13.3236 21.0744 13.1171 22.2142C13.0043 22.837 12.9614 24.4951 13.0403 25.1893C13.6171 30.2718 17.5509 34.2689 22.6205 34.9238C23.3179 35.0139 24.5322 35.0261 25.2149 34.9498C29.0125 34.5255 32.3452 32.1375 33.9823 28.6675C34.7215 27.1009 35.0513 25.454 34.9936 23.6176C34.9542 22.3644 34.7662 21.3618 34.3606 20.2416C32.9596 16.372 29.5212 13.6199 25.3958 13.066C24.7995 12.9859 23.2641 12.9766 22.6825 13.0495ZM24.7202 15.2144C27.4593 15.4568 29.8187 16.8518 31.346 19.1321C33.3115 22.0666 33.302 25.927 31.3218 28.8959C29.3353 31.8742 25.7113 33.3578 22.2088 32.6266C17.4523 31.6335 14.3778 26.9495 15.3686 22.2057C16.013 19.1208 18.2572 16.6104 21.2487 15.6283C22.4378 15.2379 23.5234 15.1085 24.7202 15.2144ZM21.0803 20.1443C21.0519 20.1552 20.9641 20.1785 20.8852 20.1959C20.7094 20.2347 20.3537 20.5483 20.2413 20.7636C20.1252 20.9861 20.129 21.4946 20.2485 21.7234C20.3005 21.8228 20.8105 22.3751 21.3818 22.9505L22.4208 23.9968L21.3818 25.0432C20.8105 25.6186 20.306 26.1626 20.2609 26.252C20.046 26.6775 20.1133 27.1304 20.4447 27.4899C20.7867 27.8608 21.2976 27.9546 21.7522 27.73C21.8375 27.6879 22.3782 27.186 22.9538 26.6148L24.0004 25.5761L25.0469 26.6148C25.6225 27.186 26.1633 27.6879 26.2485 27.73C26.7031 27.9546 27.2141 27.8608 27.556 27.4899C27.8875 27.1304 27.9547 26.6775 27.7398 26.252C27.6947 26.1626 27.1903 25.6186 26.6189 25.0432L25.58 23.9968L26.6189 22.9505C27.8693 21.6912 27.9566 21.5489 27.8221 20.9886C27.6572 20.3012 26.8822 19.9425 26.2504 20.2612C26.1641 20.3047 25.6225 20.8077 25.0469 21.3789L24.0004 22.4176L22.9538 21.3789C22.3782 20.8077 21.8321 20.3023 21.7402 20.2559C21.575 20.1725 21.1803 20.1057 21.0803 20.1443Z" fill="#FF6F1E"/>
</g>
</g>
<defs>
<filter id="filter0_d_2_4483" x="0" y="0" width="48" height="48" filterUnits="userSpaceOnUse" color-interpolation-filters="sRGB">
<feFlood flood-opacity="0" result="BackgroundImageFix"/>
<feColorMatrix in="SourceAlpha" type="matrix" values="0 0 0 0 0 0 0 0 0 0 0 0 0 0 0 0 0 0 127 0" result="hardAlpha"/>
<feOffset/>
<feGaussianBlur stdDeviation="6.5"/>
<feComposite in2="hardAlpha" operator="out"/>
<feColorMatrix type="matrix" values="0 0 0 0 1 0 0 0 0 0.435294 0 0 0 0 0.117647 0 0 0 0.25 0"/>
<feBlend mode="normal" in2="BackgroundImageFix" result="effect1_dropShadow_2_4483"/>
<feBlend mode="normal" in="SourceGraphic" in2="effect1_dropShadow_2_4483" result="shape"/>
</filter>
</defs>
</svg>
