<svg width="20" height="20" viewBox="0 0 20 20" fill="none" xmlns="http://www.w3.org/2000/svg">
<g id="Frame 1181">
<path id="image 175 (Traced)" fill-rule="evenodd" clip-rule="evenodd" d="M1.67954 0.146538C1.54216 0.472244 1.30973 1.21842 1.23168 1.58449C1.12631 2.0785 1.08549 3.04733 1.14972 3.5279C1.23748 4.18451 1.4645 4.7997 1.82335 5.35353C1.94132 5.53559 3.0416 6.66151 5.709 9.32984L9.43009 13.0522L9.90567 12.5785L10.3812 12.1048L13.5422 15.636C15.2807 17.5782 16.7932 19.2616 16.9033 19.3769C17.3735 19.8694 17.9596 20.0811 18.5503 19.9719C19.7137 19.7568 20.3304 18.5387 19.8183 17.4674C19.7051 17.2306 19.1115 16.6286 11.0811 8.60668L2.46524 0H2.10329H1.74139L1.67954 0.146538ZM13.654 2.19807C12.4681 3.38554 11.4448 4.4362 11.38 4.53292C11.0733 4.9907 10.9261 5.38788 10.8436 5.98052C10.8121 6.20717 10.7692 6.43733 10.7484 6.49208C10.7126 6.5861 10.784 6.66491 12.0509 7.92933L13.3914 9.26712L13.6899 9.20554C13.8541 9.1717 14.0365 9.14399 14.0952 9.14399C14.3063 9.14399 14.7227 9.01719 15.0877 8.84169L15.4595 8.66295L17.7204 6.41299L19.9813 4.16302L19.5698 3.75224L19.1584 3.34146L17.5734 4.92345L15.9885 6.5054L15.577 6.09599L15.1655 5.68655L16.751 4.10331L18.3365 2.52007L17.9159 2.10015L17.4953 1.68027L15.9094 3.26315L14.3236 4.84604L13.9134 4.43523L13.5033 4.02441L15.0877 2.44231L16.672 0.860199L16.2622 0.449658C16.0368 0.223832 15.8429 0.0390769 15.8313 0.0390769C15.8197 0.0390769 14.8399 1.01061 13.654 2.19807ZM3.18462 14.3314C0.468612 17.0499 0.25893 17.2694 0.159627 17.4966C-0.28796 18.5206 0.240885 19.6419 1.3066 19.9284C1.53484 19.9897 2.02978 19.9818 2.25383 19.9132C2.67566 19.7841 2.72177 19.7421 5.69365 16.7798L8.60972 13.8732L7.37699 12.6418C6.69897 11.9646 6.13494 11.4104 6.12359 11.4104C6.11224 11.4104 4.78971 12.7249 3.18462 14.3314Z" fill="white"/>
</g>
</svg>
