<svg width="16" height="16" viewBox="0 0 16 16" xmlns="http://www.w3.org/2000/svg">
<g id="Frame" clip-path="url(#clip0_2_4380)">
<path id="Vector" d="M1.31619 3.76L1.30286 3.74667L4.61398 0.444458L5.55619 1.38667L3.68065 3.26221C4.51619 3.58221 5.11177 4.38667 5.11177 5.33333C5.11177 6.56 4.11623 7.55554 2.88957 7.55554C2.57403 7.55554 2.27178 7.48887 2.00069 7.36888V13.7778C2.00065 14.2667 2.40065 14.6667 2.88952 14.6667C3.3784 14.6667 3.7784 14.2667 3.7784 13.7778V9.77779C3.7784 8.79558 4.57394 8 5.55619 8H6.44507V1.77779C6.44511 0.795542 7.24065 0 8.22286 0H13.5562C14.5384 0 15.334 0.795542 15.334 1.77779V16H6.44511V9.33333H5.11177V13.7778C5.11177 15.0045 4.11623 16 2.88957 16C1.6629 16 0.667358 15.0045 0.667358 13.7778V5.33333C0.667316 4.72 0.916191 4.16446 1.31619 3.76ZM8.22286 6.22221H13.5562V1.77779H8.22286V6.22221ZM2.88952 6.22221C3.3784 6.22221 3.7784 5.82221 3.7784 5.33333C3.7784 4.84446 3.3784 4.44446 2.88952 4.44446C2.40065 4.44446 2.00065 4.84446 2.00065 5.33333C2.00065 5.82221 2.40065 6.22221 2.88952 6.22221Z"/>
</g>
<defs>
<clipPath id="clip0_2_4380">
<rect width="16" height="16" transform="matrix(-1 0 0 1 16 0)"/>
</clipPath>
</defs>
</svg>
