<svg width="18" height="18" viewBox="0 0 18 18" xmlns="http://www.w3.org/2000/svg">
<g id="headlight 1" clip-path="url(#clip0_2_4399)">
<path id="Vector" d="M11.7712 11.27H18.0003V12.6242H11.558C11.6363 12.2081 11.7098 11.7541 11.7712 11.27ZM11.9404 8.66323C11.9404 8.89188 11.9362 9.11762 11.9285 9.34031H18.0003V7.98615H11.9285C11.9362 8.20871 11.9404 8.43458 11.9404 8.66323ZM11.5387 4.60073C11.6186 5.01518 11.6943 5.4693 11.7581 5.9549H18.0003V4.60073H11.5387ZM9.60899 14.8133C9.64893 14.7005 10.5863 12.0112 10.5863 8.66323C10.5863 5.31524 9.64893 2.62581 9.60899 2.51301L9.43866 2.03125L8.92873 2.06299C8.84621 2.06815 6.88479 2.19814 4.89546 3.03273C2.1292 4.19302 0.666992 6.14004 0.666992 8.66323C0.666992 11.1863 2.1292 13.1333 4.89546 14.2937C6.88479 15.1282 8.84608 15.2583 8.9286 15.2635L9.43866 15.2952L9.60899 14.8133ZM9.2321 8.66323C9.2321 10.9554 8.74677 12.9545 8.48903 13.8547C7.8167 13.764 6.59372 13.5422 5.39071 13.0331C3.15488 12.0865 2.02116 10.6163 2.02116 8.66323C2.02116 6.71013 3.15488 5.23986 5.39071 4.2934C6.59412 3.784 7.81763 3.56223 8.48955 3.47164C8.74756 4.36983 9.2321 6.36353 9.2321 8.66323Z"/>
</g>
<defs>
<clipPath id="clip0_2_4399">
<rect width="17.3333" height="17.3333" transform="translate(0.666992)"/>
</clipPath>
</defs>
</svg>
