<svg width="20" height="18" viewBox="0 0 20 18" fill="none" xmlns="http://www.w3.org/2000/svg">
<g id="Frame 1179">
<path id="image 173 (Traced)" fill-rule="evenodd" clip-rule="evenodd" d="M4.52804 0.0672154C2.64661 0.35271 1.33381 1.27568 0.584674 2.83957C0.0239449 4.01008 -0.157698 5.72407 0.145875 6.98015C0.440297 8.19849 1.14607 9.53945 2.23452 10.9486C3.57794 12.6878 5.6525 14.7041 7.98599 16.5386C8.3815 16.8496 9.79194 17.8953 9.95172 17.9962C10.0078 18.0315 10.2936 17.8311 11.3295 17.0299C14.6432 14.4669 17.416 11.6192 18.7743 9.38421C19.9205 7.49806 20.2386 5.97585 19.8296 4.33524C18.8927 0.577135 14.7513 -1.17309 11.5907 0.853334C11.1043 1.16516 10.5172 1.70623 10.1759 2.15712C10.0898 2.27078 10.0107 2.36377 9.9999 2.36377C9.98915 2.36377 9.90996 2.27078 9.82393 2.15712C9.63349 1.90554 9.15371 1.41474 8.87837 1.18979C8.19016 0.627605 7.23654 0.202849 6.35679 0.0666447C5.85847 -0.0104873 5.03848 -0.0102427 4.52804 0.0672154Z" fill="white"/>
</g>
</svg>
