<svg width="14" height="14" viewBox="0 0 14 14" fill="none" xmlns="http://www.w3.org/2000/svg">
<g id="Frame 1178">
<path id="image 172 (Traced)" fill-rule="evenodd" clip-rule="evenodd" d="M6.82654 2.52616C-0.23276 5.24041 0.096066 5.10348 0.0187893 5.36123C-0.0464178 5.57882 0.0630548 5.8283 0.270369 5.9345C0.315732 5.95771 1.75653 6.29688 3.47213 6.68815C5.18774 7.07945 6.59345 7.40185 6.59593 7.40464C6.5984 7.40743 6.92748 8.82682 7.32719 10.5588C8.11782 13.9849 8.08209 13.8631 8.32667 13.9652C8.56035 14.0628 8.85952 13.947 8.96639 13.7175C8.99292 13.6606 10.1323 10.7022 11.4984 7.14338C13.006 3.21577 13.9882 0.615513 13.9975 0.526994C14.0267 0.252128 13.7941 -0.00199361 13.5154 1.17904e-05C13.4316 0.000607144 11.3703 0.779079 6.82654 2.52616Z" fill="white"/>
</g>
</svg>
