<svg width="20" height="20" viewBox="0 0 20 20" fill="none" xmlns="http://www.w3.org/2000/svg">
<g id="Frame 1189">
<path id="image 184 (Traced)" fill-rule="evenodd" clip-rule="evenodd" d="M6.10013 0.00408091C3.53593 0.134152 0.638103 2.75049 0.0698866 5.44866C-0.0232549 5.89097 -0.0233036 6.69455 0.0697891 7.09553C0.218552 7.73619 0.592289 8.37139 1.07629 8.80605C1.52078 9.20523 2.44248 9.69754 3.11467 9.89487C3.28066 9.9436 3.416 9.99443 3.41542 10.0078C3.41483 10.0212 3.2226 10.0933 2.98826 10.168C2.5204 10.3171 1.98473 10.5713 1.54898 10.8509C0.792965 11.336 0.266611 12.0724 0.0697891 12.9201C-0.0233036 13.3211 -0.0232549 14.1247 0.0698866 14.567C0.580628 16.9922 3.01089 19.4197 5.43892 19.9298C5.88174 20.0228 6.68625 20.0229 7.0877 19.9299C8.00794 19.7167 8.75034 19.15 9.28485 18.2525C9.51772 17.8614 9.88009 17.02 9.93611 16.7403C9.97533 16.5444 10.0314 16.5444 10.0707 16.7403C10.1267 17.02 10.489 17.8614 10.7219 18.2525C11.2611 19.1578 12.0446 19.7442 12.9854 19.9465C13.3477 20.0244 14.1583 20.0159 14.5679 19.9298C16.4241 19.5398 18.3828 17.9742 19.3675 16.0934C19.8585 15.1555 20.0312 14.4528 19.9955 13.5373C19.9613 12.6615 19.7185 12.0621 19.1372 11.4187C18.692 10.9261 17.783 10.3938 16.961 10.1444C16.7575 10.0827 16.5911 10.0212 16.5911 10.0078C16.5911 9.99443 16.7575 9.93298 16.961 9.87123C17.783 9.62191 18.692 9.08958 19.1372 8.59693C19.7161 7.95627 19.957 7.36035 19.9939 6.47841C20.0301 5.61109 19.8673 4.90342 19.4326 4.0379C18.5916 2.3634 16.9006 0.843185 15.2484 0.276212C14.5018 0.020017 13.5983 -0.0626362 12.9854 0.0691896C12.0383 0.27285 11.2615 0.857172 10.7125 1.77903C10.4706 2.18527 10.1295 2.97993 10.0724 3.27034C10.033 3.47093 9.97567 3.47307 9.93611 3.27541C9.88092 2.99977 9.51938 2.1572 9.28319 1.75368C9.01211 1.29056 8.44506 0.701466 8.04244 0.464667C7.49955 0.145361 6.76217 -0.0294482 6.10013 0.00408091Z" fill="white"/>
</g>
</svg>
