<svg width="16" height="16" viewBox="0 0 16 16" xmlns="http://www.w3.org/2000/svg">
<path id="Vector" d="M13.1199 8.26343C13.1199 7.94344 12.8752 7.69873 12.5552 7.69873C12.2352 7.69873 11.9905 7.94344 11.9905 8.26343C11.9905 10.4658 10.2022 12.254 7.99988 12.254C5.79753 12.254 4.00929 10.4658 4.00929 8.26343C4.00929 7.94344 3.76459 7.69873 3.44459 7.69873C3.12459 7.69873 2.87988 7.94344 2.87988 8.26343C2.87988 10.8799 4.83753 13.0822 7.43518 13.3646V14.8705H5.38341C5.06341 14.8705 4.81871 15.1152 4.81871 15.4352C4.81871 15.7552 5.06341 15.9999 5.38341 15.9999H10.6164C10.9364 15.9999 11.1811 15.7552 11.1811 15.4352C11.1811 15.1152 10.9364 14.8705 10.6164 14.8705H8.56459V13.3646C11.1622 13.0822 13.1199 10.8799 13.1199 8.26343Z" />
<path id="Vector_2" d="M7.99998 0C6.26821 0 4.85645 1.41176 4.85645 3.14353V8.24471C4.85645 9.99529 6.26821 11.3882 7.99998 11.4071C9.73175 11.4071 11.1435 9.99529 11.1435 8.26353V3.14353C11.1435 1.41176 9.73175 0 7.99998 0Z" />
</svg>
