<svg width="12" height="14" viewBox="0 0 12 14" fill="none" xmlns="http://www.w3.org/2000/svg">
<g id="Frame 1188">
<path id="image 183 (Traced)" fill-rule="evenodd" clip-rule="evenodd" d="M5.38182 0.0349899C4.61396 0.152448 3.92791 0.506436 3.39018 1.06265C2.8003 1.67281 2.4946 2.37739 2.45257 3.2237C2.39386 4.40573 2.98998 5.53568 4.01777 6.19061C4.5233 6.51272 5.01089 6.67628 5.60148 6.72181C6.69613 6.80619 7.62956 6.47141 8.38309 5.72411C8.97961 5.13256 9.28466 4.4889 9.35894 3.66511C9.45817 2.56468 9.03264 1.53981 8.17954 0.824775C7.62936 0.363588 7.1217 0.135813 6.42218 0.0362211C6.08612 -0.0116322 5.68971 -0.0120973 5.38182 0.0349899ZM2.82811 6.78307C1.55657 6.91374 0.67544 7.80156 0.264555 9.36611C-0.00942493 10.4094 -0.0798882 11.663 0.0969165 12.3484C0.238968 12.899 0.70741 13.4577 1.25003 13.7238C1.49651 13.8446 1.84863 13.9448 2.14223 13.9777C2.3162 13.9972 3.64417 14.0038 6.18318 13.9979L9.96502 13.9892L10.204 13.9254C11.0913 13.6884 11.7002 13.11 11.9218 12.2937C12.0376 11.8672 12.0232 10.8831 11.8892 10.0638C11.599 8.28874 10.8467 7.2129 9.66205 6.87886C9.39159 6.80261 8.90774 6.7446 8.76431 6.77128C8.62709 6.79678 8.43528 6.89651 8.00229 7.1674C7.54105 7.45597 7.47711 7.48883 7.13171 7.61474C6.73167 7.76055 6.40154 7.82203 6.01838 7.82208C5.61784 7.82211 5.32233 7.76977 4.90025 7.62402C4.57948 7.51324 4.45796 7.44919 3.79317 7.04037C3.46534 6.83878 3.24493 6.74794 3.10518 6.75683C3.07375 6.75883 2.94907 6.77065 2.82811 6.78307Z" fill="white"/>
</g>
</svg>
