<svg width="21" height="22" viewBox="0 0 21 22" fill="none" xmlns="http://www.w3.org/2000/svg">
<g id="Frame 1183">
<path id="image 177 (Traced)" fill-rule="evenodd" clip-rule="evenodd" d="M14.5486 0.0419159C13.9982 0.144755 13.3726 0.572464 13.036 1.07625C12.7552 1.49643 12.6869 1.74879 12.6888 2.35847C12.6903 2.83743 12.7031 2.92822 12.8059 3.18721C13.1793 4.12838 14.0329 4.70553 15.0466 4.70222C16.047 4.69891 16.92 4.08854 17.2624 3.15283C17.3921 2.79844 17.4198 2.13756 17.3209 1.75606C17.0122 0.564332 15.7918 -0.190269 14.5486 0.0419159ZM6.6218 3.86182C6.40005 3.91453 6.03836 4.1323 5.89446 4.29964C5.81968 4.38669 5.32081 5.24796 4.78591 6.21357C3.7277 8.12389 3.67176 8.25848 3.74654 8.71502C3.80249 9.05659 3.93529 9.29677 4.20225 9.53924C4.77837 10.0625 5.67337 10.0252 6.18281 9.4568C6.28699 9.34062 6.66991 8.7003 7.07915 7.95805L7.79362 6.66219L9.14294 6.66176L10.4923 6.66137L8.9971 9.25387C8.17472 10.6797 7.24867 12.2863 6.93916 12.824L6.37645 13.8017L3.68588 13.8137L0.995298 13.8257L0.778791 13.9323C0.502484 14.0682 0.240424 14.3286 0.105367 14.6014C0.0152563 14.7833 -0.000548681 14.8767 1.42378e-05 15.2242C0.000577156 15.5834 0.0146934 15.6596 0.116668 15.8527C0.267401 16.1382 0.595799 16.4283 0.890725 16.5365C1.11728 16.6197 1.23224 16.6226 4.28621 16.6226C7.24027 16.6226 7.46211 16.6174 7.67506 16.5437C8.0792 16.4037 8.29388 16.1569 8.89404 15.1428C9.18966 14.6432 9.44297 14.2347 9.45696 14.235C9.47095 14.2353 9.69746 14.4048 9.96034 14.6115C10.2232 14.8183 10.7946 15.2666 11.2301 15.6078C11.7804 16.039 12.016 16.2489 12.0027 16.2963C11.9921 16.3337 11.6268 17.2454 11.1909 18.3222C10.4127 20.2447 10.3984 20.2859 10.3966 20.6028C10.3935 21.1551 10.6549 21.584 11.1588 21.8535C11.4063 21.9858 11.4643 21.9991 11.799 22C12.085 22.0008 12.2117 21.9805 12.3672 21.9091C12.6199 21.7932 12.8997 21.5436 13.0318 21.3164C13.0879 21.2197 13.5876 20.0176 14.142 18.645C15.0613 16.3694 15.1517 16.1227 15.1672 15.8481C15.1884 15.4715 15.0668 15.1186 14.8266 14.8597C14.7359 14.7618 14.0182 14.1794 13.2319 13.5653C12.4455 12.9512 11.8014 12.4322 11.8006 12.412C11.7992 12.3789 12.3412 11.4474 13.3906 9.67935L13.7574 9.06132L14.4411 10.0954C14.9865 10.9202 15.1673 11.1607 15.3347 11.2833C15.7042 11.5542 16.2095 11.6403 16.6108 11.5009C16.98 11.3726 20.4269 9.44527 20.6121 9.26351C20.9082 8.97289 21.0006 8.73219 21 8.25345C20.9996 7.91128 20.9834 7.81455 20.9007 7.65986C20.6699 7.22785 20.2348 6.91903 19.7671 6.85509C19.3959 6.80436 19.1249 6.91155 17.8694 7.60582C17.2253 7.96201 16.6823 8.25259 16.6628 8.25156C16.6431 8.25052 16.3005 7.74992 15.9014 7.13913L15.1757 6.02859L14.8165 6.00114C13.5364 5.90337 12.4348 5.21426 11.8187 4.12597L11.6474 3.82344L9.20092 3.82688C7.85533 3.82873 6.69472 3.84448 6.6218 3.86182Z" fill="white"/>
</g>
</svg>
