<svg width="18" height="18" viewBox="0 0 18 18" xmlns="http://www.w3.org/2000/svg">
<g id="seat-belt 1" clip-path="url(#clip0_2_4408)">
<g id="Group">
<g id="Group_2">
<path id="Vector" d="M6.39414 3.66107L3.5052 0.772131C3.36436 0.631295 3.1354 0.631295 2.99457 0.772131C2.85373 0.912968 2.85373 1.14193 2.99457 1.28276L5.62858 3.91603L3.25024 6.29437L0.616261 3.66107C0.475424 3.52023 0.246464 3.52023 0.105627 3.66107C-0.0352091 3.80191 -0.0352091 4.03087 0.105627 4.1717L2.99457 7.06064C3.06536 7.13069 3.15778 7.1661 3.25024 7.1661C3.3427 7.1661 3.43512 7.13072 3.5052 7.06064L6.39414 4.1717C6.53498 4.03087 6.53498 3.80191 6.39414 3.66107Z" />
</g>
</g>
<g id="Group_3">
<g id="Group_4">
<path id="Vector_2" d="M8.77244 4.5942L7.62696 3.44872C7.20445 3.02621 6.51761 3.02621 6.0951 3.44872L2.80315 6.74067C2.59802 6.94651 2.48535 7.2188 2.48535 7.5084C2.48535 7.79728 2.59802 8.06886 2.80169 8.27179C3.14403 8.61342 3.58821 9.06914 3.92622 9.41798C4.12989 9.62815 4.40218 9.74515 4.69394 9.74732C4.69757 9.74732 4.70044 9.74732 4.70332 9.74732C4.99295 9.74732 5.2645 9.63465 5.46963 9.42881L8.77241 6.12603C9.19495 5.70356 9.19495 5.01671 8.77244 4.5942ZM8.26255 5.61614L4.95977 8.91893C4.89044 8.98826 4.78715 9.02222 4.70122 9.02509C4.60443 9.02438 4.51417 8.98609 4.44626 8.91605C4.10538 8.56433 3.65829 8.1057 3.31307 7.76119C3.24519 7.69331 3.20761 7.60373 3.20761 7.5084C3.20761 7.4116 3.24516 7.3206 3.31378 7.25201L6.60573 3.96006C6.67652 3.88927 6.76894 3.8546 6.8614 3.8546C6.95386 3.8546 7.04628 3.88927 7.11707 3.96006L8.26255 5.1048C8.33043 5.17342 8.36801 5.26368 8.36801 5.36047C8.36798 5.45726 8.33043 5.54755 8.26255 5.61614Z" />
</g>
</g>
<g id="Group_5">
<g id="Group_6">
<path id="Vector_3" d="M10.3674 8.35583L8.20068 6.18912C8.05985 6.04829 7.83089 6.04829 7.69005 6.18912C7.54921 6.32996 7.54921 6.55892 7.69005 6.69975L9.6011 8.61079L7.94501 10.2669L6.03325 8.35583C5.89242 8.21499 5.66346 8.21499 5.52262 8.35583C5.38178 8.49667 5.38178 8.72563 5.52262 8.86646L7.68934 11.0332C7.76013 11.1032 7.85255 11.1386 7.94501 11.1386C8.03747 11.1386 8.12989 11.1032 8.20068 11.0332L10.3674 8.86646C10.5082 8.72559 10.5082 8.49667 10.3674 8.35583Z" />
</g>
</g>
<g id="Group_7">
<g id="Group_8">
<path id="Vector_4" d="M7.11599 5.10563C6.97515 4.96479 6.74619 4.96479 6.60535 5.10563L4.43864 7.27235C4.2978 7.41318 4.2978 7.64214 4.43864 7.78298C4.50943 7.85303 4.60185 7.88844 4.69431 7.88844C4.78677 7.88844 4.87919 7.85306 4.94927 7.78298L7.11599 5.61626C7.25683 5.47539 7.25683 5.24646 7.11599 5.10563Z" />
</g>
</g>
<g id="Group_9">
<g id="Group_10">
<path id="Vector_5" d="M17.2276 14.4945L15.0609 12.3278C14.92 12.187 14.6911 12.187 14.5502 12.3278L11.6613 15.2167C11.5205 15.3576 11.5205 15.5865 11.6613 15.7274L13.828 17.8941C13.8988 17.9641 13.9912 17.9995 14.0837 17.9995C14.1761 17.9995 14.2686 17.9642 14.3386 17.8934C14.4795 17.7525 14.4795 17.5236 14.3386 17.3827L12.4276 15.4717L14.8059 13.0934L16.717 15.0051C16.8578 15.1459 17.0868 15.1459 17.2276 15.0051C17.3684 14.8643 17.3684 14.6353 17.2276 14.4945Z" />
</g>
</g>
<g id="Group_11">
<g id="Group_12">
<path id="Vector_6" d="M15.141 12.4484C15.12 12.3949 15.0875 12.3487 15.0464 12.3126C14.9228 12.153 14.3436 11.2596 13.0609 9.18964C12.8869 8.90868 12.5987 8.72525 12.2708 8.68696C11.9393 8.64867 11.6143 8.7628 11.3774 8.99968L8.32594 12.0511C8.09264 12.2851 7.97927 12.6065 8.01539 12.9352C8.05151 13.2638 8.23206 13.5541 8.51086 13.7318L11.7234 15.7765C11.7833 15.8148 11.8505 15.8328 11.9177 15.8328C12.0108 15.8328 12.1033 15.7967 12.1719 15.7259L15.0608 12.837C15.1626 12.7351 15.1944 12.5827 15.141 12.4484ZM11.8678 15.0116L8.89937 13.1229C8.80621 13.0637 8.74625 12.9669 8.73399 12.8571C8.72174 12.7474 8.75999 12.6398 8.83729 12.5625L11.8887 9.51103C11.9588 9.44169 12.0505 9.4034 12.1466 9.4034C12.1603 9.4034 12.174 9.40411 12.1899 9.40557C12.2527 9.41278 12.3705 9.44386 12.4492 9.57095C13.5189 11.2978 14.041 12.1385 14.3306 12.5487L11.8678 15.0116Z" />
</g>
</g>
<g id="Group_13">
<g id="Group_14">
<path id="Vector_7" d="M12.8943 10.8835C12.7535 10.7426 12.5245 10.7426 12.3837 10.8835L10.217 13.0502C10.0761 13.191 10.0761 13.42 10.217 13.5608C10.2877 13.6309 10.3802 13.6663 10.4726 13.6663C10.5651 13.6663 10.6575 13.6309 10.7276 13.5608L12.8943 11.3941C13.0351 11.2533 13.0351 11.0243 12.8943 10.8835Z" />
</g>
</g>
<g id="Group_15">
<g id="Group_16">
<path id="Vector_8" d="M10.4725 4.27734C10.2731 4.27734 10.1113 4.43914 10.1113 4.63847V5.3607C10.1113 5.56004 10.2731 5.72183 10.4725 5.72183C10.6718 5.72183 10.8336 5.56004 10.8336 5.3607V4.63847C10.8336 4.43914 10.6718 4.27734 10.4725 4.27734Z" />
</g>
</g>
<g id="Group_17">
<g id="Group_18">
<path id="Vector_9" d="M13.3617 7.16602H12.6395C12.4401 7.16602 12.2783 7.32781 12.2783 7.52715C12.2783 7.72648 12.4401 7.88828 12.6395 7.88828H13.3617C13.561 7.88828 13.7228 7.72648 13.7228 7.52715C13.7228 7.32781 13.561 7.16602 13.3617 7.16602Z" />
</g>
</g>
<g id="Group_19">
<g id="Group_20">
<path id="Vector_10" d="M12.8942 5.10563C12.7533 4.96479 12.5244 4.96479 12.3835 5.10563L11.6613 5.82786C11.5205 5.96869 11.5205 6.19765 11.6613 6.33849C11.7321 6.40854 11.8245 6.44395 11.917 6.44395C12.0094 6.44395 12.1018 6.40857 12.1719 6.33849L12.8942 5.61626C13.035 5.47539 13.035 5.24646 12.8942 5.10563Z" />
</g>
</g>
<g id="Group_21">
<g id="Group_22">
<path id="Vector_11" d="M6.86113 12.9443C6.66179 12.9443 6.5 13.1061 6.5 13.3055V14.0277C6.5 14.227 6.66179 14.3888 6.86113 14.3888C7.06047 14.3888 7.22226 14.227 7.22226 14.0277V13.3055C7.22226 13.1061 7.06047 12.9443 6.86113 12.9443Z" />
</g>
</g>
<g id="Group_23">
<g id="Group_24">
<path id="Vector_12" d="M4.69468 10.7773H3.97246C3.77312 10.7773 3.61133 10.9391 3.61133 11.1385C3.61133 11.3378 3.77312 11.4996 3.97246 11.4996H4.69468C4.89402 11.4996 5.05582 11.3378 5.05582 11.1385C5.05582 10.9391 4.89402 10.7773 4.69468 10.7773Z" />
</g>
</g>
<g id="Group_25">
<g id="Group_26">
<path id="Vector_13" d="M5.6715 12.3278C5.53066 12.187 5.3017 12.187 5.16087 12.3278L4.43864 13.05C4.2978 13.1909 4.2978 13.4198 4.43864 13.5607C4.50943 13.6307 4.60185 13.6661 4.69431 13.6661C4.78677 13.6661 4.87919 13.6307 4.94927 13.5607L5.6715 12.8384C5.81234 12.6976 5.81234 12.4686 5.6715 12.3278Z" />
</g>
</g>
</g>
<defs>
<clipPath id="clip0_2_4408">
<rect width="17.3333" height="17.3333"  transform="translate(0 0.666504)"/>
</clipPath>
</defs>
</svg>
