<svg width="33" height="47" viewBox="0 0 33 47" xmlns="http://www.w3.org/2000/svg">
<path id="image 182 (Traced)" fill-rule="evenodd" clip-rule="evenodd" d="M14.9637 1.40176C11.8455 4.50922 9.44393 6.26503 6.90554 7.29292C5.37174 7.91417 4.53622 8.07302 2.44755 8.14101L0.589226 8.20146L0.294613 8.49904L0 8.79663L0.00280999 19.624C0.0044417 26.0674 0.0412456 30.7304 0.0935507 31.1404C0.558405 34.7829 3.07104 38.2102 8.06786 42.0178C11.2448 44.4386 14.6947 46.577 15.9486 46.9026C17.172 47.2203 18.1212 46.833 21.4388 44.6627C27.7268 40.5492 31.3962 36.726 32.742 32.886L32.9513 32.2889L32.9756 20.5552L33 8.82171L32.7364 8.52266L32.4728 8.2237L30.7178 8.15167C29.7072 8.11014 28.6744 8.01588 28.2828 7.92942C25.1763 7.24322 21.6535 4.9323 18.2746 1.36437C17.681 0.737603 17.1099 0.174506 17.0055 0.113134C16.5665 -0.144757 16.4273 -0.0570172 14.9637 1.40176ZM17.8225 18.5766C18.4515 19.8525 18.9777 20.9094 18.9918 20.9252C19.0061 20.941 20.0315 21.1158 21.2707 21.3137C22.5099 21.5116 23.663 21.6982 23.8333 21.7284L24.1428 21.7832L22.3126 23.6398L20.4824 25.4964L20.8838 28.0658C21.1046 29.4789 21.2712 30.6499 21.254 30.668C21.2369 30.6861 20.1968 30.1693 18.9429 29.5196L16.663 28.3383L14.3899 29.5096C13.1396 30.1538 12.0974 30.6613 12.074 30.6375C12.0504 30.6136 12.2001 29.5236 12.4064 28.2152C12.6128 26.9066 12.7817 25.7579 12.7817 25.6622C12.7817 25.5588 12.0497 24.7472 10.972 23.6561C9.97668 22.6483 9.17406 21.8118 9.18848 21.7973C9.2028 21.7828 10.2517 21.6048 11.5194 21.4018C12.787 21.1988 13.9336 21.0097 14.0673 20.9816C14.2812 20.9367 14.4494 20.6511 15.4723 18.5948C16.1114 17.3101 16.6444 16.2586 16.6566 16.2579C16.6689 16.2574 17.1935 17.3008 17.8225 18.5766Z"/>
</svg>
