<svg width="18" height="22" viewBox="0 0 18 22" fill="none" xmlns="http://www.w3.org/2000/svg">
<g id="Frame 1180">
<path id="image 174 (Traced) (Traced)" fill-rule="evenodd" clip-rule="evenodd" d="M8.7375 0.0112983C8.67941 0.0255488 7.85967 0.222775 6.91584 0.449642C4.52603 1.02407 1.60694 1.7682 1.02153 1.95226C0.481577 2.12197 0.258542 2.27277 0.102091 2.57374C0.0020314 2.76625 -0.00113671 2.90513 0.000183335 7.03667C0.00166178 11.5865 0.0339237 12.5522 0.21308 13.4044C0.446411 14.5146 1.00954 15.912 1.52209 16.6527C1.86012 17.1413 2.64254 18.0565 3.04109 18.4295C4.11529 19.4349 6.59353 21.1121 8.12558 21.8705C8.39882 22.0058 8.43911 22.011 9.04961 21.9918C9.64484 21.973 9.71016 21.9604 10.0173 21.8049C11.0289 21.2927 12.9871 20.0364 13.9445 19.2854C16.0568 17.6286 17.2738 15.8122 17.7317 13.6328C17.9638 12.5283 17.9669 12.4542 17.9891 7.53518C18.0104 2.85217 18.0092 2.78195 17.9041 2.57996C17.6579 2.10627 17.5111 2.05279 14.1023 1.19455C9.98985 0.159244 9.01296 -0.0562229 8.7375 0.0112983Z" fill="white"/>
</g>
</svg>
