<svg width="43" height="47" viewBox="0 0 43 47" fill="none" xmlns="http://www.w3.org/2000/svg">
<g id="Frame 1184">
<g id="image 178 (Traced)" filter="url(#filter0_d_2_4462)">
<path fill-rule="evenodd" clip-rule="evenodd" d="M21.202 13.0432C21.011 13.1088 20.7382 13.3994 20.686 13.593C20.6625 13.68 20.6432 13.9874 20.6431 14.276C20.6429 14.6618 20.6296 14.8043 20.593 14.8135C19.7533 15.0248 19.4739 15.1093 19.1714 15.2435C17.3346 16.0583 16.0876 17.6297 15.6484 19.6825C15.5721 20.0393 15.5615 20.2629 15.5342 22.0882C15.5068 23.9215 15.4965 24.1361 15.419 24.499C15.1513 25.7514 14.6207 26.7069 13.6559 27.6737C13.1165 28.2142 13.0003 28.4472 13 28.9888C12.9998 29.3247 13.012 29.3848 13.1308 29.6329C13.3446 30.0798 13.7441 30.3946 14.214 30.4863C14.5257 30.5472 28.5095 30.5435 28.7928 30.4824C29.7559 30.2751 30.2624 29.2515 29.8623 28.3209C29.8067 28.1915 29.63 27.9772 29.3117 27.6529C28.4505 26.7758 27.9784 25.9938 27.6887 24.9643C27.492 24.2655 27.4681 23.9779 27.4672 22.2936C27.4663 20.7139 27.4396 20.2168 27.3237 19.6262C26.8641 17.2832 24.9796 15.3473 22.7124 14.8889L22.3673 14.8191L22.353 14.2235C22.3395 13.6598 22.3328 13.6175 22.2281 13.434C22.029 13.0848 21.5795 12.9136 21.202 13.0432ZM18.3679 31.4067C18.3679 31.4762 18.5563 32.0264 18.6366 32.1913C19.0305 33 19.7981 33.6481 20.6628 33.902C21.0801 34.0245 21.8801 34.0338 22.2792 33.9208C22.9136 33.7411 23.54 33.332 23.9379 32.8374C24.1742 32.5438 24.4724 31.9632 24.5705 31.6061L24.6297 31.3905H21.4988C19.7768 31.3905 18.3679 31.3978 18.3679 31.4067Z" fill="#63FF2C"/>
</g>
</g>
<defs>
<filter id="filter0_d_2_4462" x="0" y="0" width="43" height="47" filterUnits="userSpaceOnUse" color-interpolation-filters="sRGB">
<feFlood flood-opacity="0" result="BackgroundImageFix"/>
<feColorMatrix in="SourceAlpha" type="matrix" values="0 0 0 0 0 0 0 0 0 0 0 0 0 0 0 0 0 0 127 0" result="hardAlpha"/>
<feOffset/>
<feGaussianBlur stdDeviation="6.5"/>
<feComposite in2="hardAlpha" operator="out"/>
<feColorMatrix type="matrix" values="0 0 0 0 0.388235 0 0 0 0 1 0 0 0 0 0.172549 0 0 0 0.25 0"/>
<feBlend mode="normal" in2="BackgroundImageFix" result="effect1_dropShadow_2_4462"/>
<feBlend mode="normal" in="SourceGraphic" in2="effect1_dropShadow_2_4462" result="shape"/>
</filter>
</defs>
</svg>
