<svg width="18" height="18" viewBox="0 0 18 18" xmlns="http://www.w3.org/2000/svg">
<g id="trunk 1" clip-path="url(#clip0_2_4448)">
<path id="Vector" d="M17.1719 7.93023H15.345L17.5406 5.73451C17.7082 5.56692 17.7082 5.29519 17.5406 5.12765C17.3731 4.96005 17.1013 4.96005 16.9337 5.12765L14.4715 7.5899L13.6373 5.43268C13.5734 5.26732 13.4144 5.15832 13.2371 5.15832H6.48514C6.33403 5.15832 6.19407 5.2378 6.11665 5.36751L4.58707 7.93018H1.29813C1.08562 7.93018 0.905092 8.08575 0.873736 8.29592L0.337709 11.8843C0.319284 12.0079 0.355561 12.1333 0.437041 12.2279C0.518578 12.3225 0.63725 12.3769 0.762159 12.3769H2.3477C2.70423 13.1487 3.4891 13.6644 4.357 13.6644C5.22455 13.6644 6.00902 13.1487 6.36532 12.3769H11.8837C12.2401 13.1487 13.0248 13.6644 13.8925 13.6644C14.76 13.6644 15.5445 13.1487 15.9007 12.3769H17.172C17.409 12.3769 17.6012 12.1847 17.6012 11.9477V8.35932C17.6011 8.12237 17.4089 7.93023 17.1719 7.93023ZM16.7428 11.5187H15.6039C15.4127 11.5187 15.2445 11.6452 15.1916 11.8289C15.0257 12.4043 14.4915 12.8062 13.8925 12.8062C13.2932 12.8062 12.7587 12.4043 12.5927 11.8288C12.5397 11.6451 12.3715 11.5187 12.1804 11.5187H6.06853C5.8773 11.5187 5.70914 11.6452 5.65615 11.8289C5.49028 12.4043 4.95602 12.8062 4.357 12.8062C3.75751 12.8062 3.22286 12.4043 3.0567 11.8288C3.00371 11.6451 2.83554 11.5187 2.64438 11.5187H1.26019L1.66793 8.78852H4.83066C4.98177 8.78852 5.12173 8.70904 5.19915 8.57933L6.72872 6.01666H12.9429L13.9087 8.51415C13.9726 8.67952 14.1317 8.78852 14.3089 8.78852H16.7427V11.5187H16.7428Z"/>
</g>
<defs>
<clipPath id="clip0_2_4448">
<rect width="17.3333" height="17.3333" transform="translate(0.333008 0.666504)"/>
</clipPath>
</defs>
</svg>
