<svg width="49" height="47" viewBox="0 0 49 47" fill="none" xmlns="http://www.w3.org/2000/svg">
<g id="Frame 1185">
<g id="image 179 (Traced)" filter="url(#filter0_d_2_4472)">
<path fill-rule="evenodd" clip-rule="evenodd" d="M23.7798 13.0509C22.9518 13.2412 22.1938 13.7406 21.7283 14.4024C21.4812 14.7537 13.5118 28.6457 13.3078 29.0806C13.0673 29.5934 12.9986 29.9178 13 30.5347C13.001 30.9565 13.0235 31.1574 13.1008 31.4316C13.4674 32.7313 14.4503 33.6621 15.7396 33.9302C16.0342 33.9915 17.0881 34 24.4622 34C33.5445 34 33.184 34.0093 33.8017 33.7581C34.2579 33.5725 34.5719 33.3605 34.9531 32.9808C35.5291 32.4069 35.847 31.7715 35.9651 30.9579C36.0606 30.3003 35.9612 29.691 35.6521 29.0399C35.4563 28.6275 27.709 15.095 27.3588 14.5538C26.913 13.8646 26.1444 13.2997 25.3677 13.0901C24.9949 12.9895 24.1389 12.9684 23.7798 13.0509ZM24.9955 19.2682C25.408 19.4519 25.6728 19.8082 25.7467 20.2792C25.7706 20.4312 25.7386 21.2573 25.6552 22.6473C25.5846 23.8214 25.5087 25.2055 25.4864 25.7232C25.4493 26.5863 25.4369 26.6822 25.3369 26.8779C25.1811 27.1827 24.9232 27.3528 24.5792 27.3779C24.112 27.4119 23.7766 27.219 23.6097 26.8203C23.5359 26.6441 23.5017 26.1464 23.203 20.9086C23.168 20.2939 23.2338 19.9895 23.4694 19.6777C23.625 19.4715 24.0145 19.2071 24.2144 19.1718C24.4294 19.1339 24.7954 19.179 24.9955 19.2682ZM25.0571 28.4512C25.7824 28.8085 25.9758 29.8149 25.4375 30.4307C24.6618 31.318 23.2253 30.7665 23.2253 29.5814C23.2253 28.6246 24.1949 28.0264 25.0571 28.4512Z" fill="#FF2C2C"/>
</g>
</g>
<defs>
<filter id="filter0_d_2_4472" x="0" y="0" width="49" height="47" filterUnits="userSpaceOnUse" color-interpolation-filters="sRGB">
<feFlood flood-opacity="0" result="BackgroundImageFix"/>
<feColorMatrix in="SourceAlpha" type="matrix" values="0 0 0 0 0 0 0 0 0 0 0 0 0 0 0 0 0 0 127 0" result="hardAlpha"/>
<feOffset/>
<feGaussianBlur stdDeviation="6.5"/>
<feComposite in2="hardAlpha" operator="out"/>
<feColorMatrix type="matrix" values="0 0 0 0 1 0 0 0 0 0.172549 0 0 0 0 0.172549 0 0 0 0.25 0"/>
<feBlend mode="normal" in2="BackgroundImageFix" result="effect1_dropShadow_2_4472"/>
<feBlend mode="normal" in="SourceGraphic" in2="effect1_dropShadow_2_4472" result="shape"/>
</filter>
</defs>
</svg>
