<svg width="16" height="21" viewBox="0 0 16 21" fill="none" xmlns="http://www.w3.org/2000/svg">
<g id="Frame 1182">
<path id="image 176 (Traced)" fill-rule="evenodd" clip-rule="evenodd" d="M7.78098 0.0647598C7.71971 0.0964739 7.59795 0.238839 7.51037 0.381039C7.42279 0.523281 6.9823 1.11969 6.53158 1.70638C3.01336 6.28573 1.39869 8.79147 0.513469 11.0457C0.157122 11.9532 0.030231 12.5037 0.00409489 13.2556C-0.0845181 15.8064 1.27 18.2584 3.58659 19.7407C5.58383 21.0186 8.22297 21.3505 10.5343 20.6143C13.8461 19.5593 16.1091 16.5104 15.9959 13.2556C15.9711 12.5409 15.8565 12.0151 15.5443 11.1837C14.5594 8.56069 12.0065 4.60447 8.72451 0.615018C8.21772 -0.00100692 8.07201 -0.0860154 7.78098 0.0647598Z" fill="white"/>
</g>
</svg>
