<svg width="21" height="17" viewBox="0 0 21 17" fill="none" xmlns="http://www.w3.org/2000/svg">
<g id="Frame 43">
<path id="free-icon-debit-card-4575615 1 (Traced)" fill-rule="evenodd" clip-rule="evenodd" d="M1.70827 0.0879561C0.885999 0.378563 0.276046 1.06766 0.0675373 1.94168C0.00183986 2.21705 -0.0256288 3.34882 0.029571 3.50585C0.109528 3.73341 -0.396237 3.72291 10.5 3.72291C21.3962 3.72291 20.8905 3.73341 20.9704 3.50585C21.0256 3.34882 20.9982 2.21705 20.9325 1.94168C20.7209 1.05496 20.0802 0.343556 19.251 0.0747749C19.0359 0.00504831 18.2068 -0.00197204 10.4811 0.0003681C2.42289 0.00280375 1.93545 0.00762728 1.70827 0.0879561ZM0.194864 5.94021C0.120244 5.97565 0.0464546 6.04103 0.0308394 6.08554C0.0151805 6.13 0.00240846 8.10503 0.00240846 10.4745C0.00240846 15.2052 -0.00686438 15.0269 0.270272 15.6263C0.447463 16.0096 0.904239 16.511 1.24952 16.7013C1.83393 17.0233 1.09941 16.9996 10.5 16.9996C19.9006 16.9996 19.1661 17.0233 19.7505 16.7013C20.0958 16.511 20.5525 16.0096 20.7297 15.6263C21.0069 15.0269 20.9976 15.2058 20.9976 10.4675C20.9976 7.74403 20.9818 6.12007 20.9548 6.06491C20.9312 6.01686 20.8496 5.95382 20.7733 5.92479C20.6735 5.88682 17.786 5.87254 10.4825 5.87388C2.06007 5.87545 0.307364 5.88672 0.194864 5.94021ZM6.63142 11.6758C6.76395 11.7654 6.89578 11.9094 6.9778 12.0542C7.09043 12.2531 7.11015 12.3354 7.11015 12.6059C7.11015 12.8764 7.09043 12.9587 6.9778 13.1576C6.89578 13.3023 6.76395 13.4464 6.63142 13.5359L6.41744 13.6804L5.20003 13.6958C4.18067 13.7086 3.9432 13.6985 3.74038 13.6342C2.81878 13.3416 2.80168 11.9363 3.71528 11.572C3.83539 11.5241 4.17931 11.5116 5.1454 11.5201L6.4174 11.5313L6.63142 11.6758Z" fill="white"/>
</g>
</svg>
