<svg width="20" height="18" viewBox="0 0 20 18" fill="none" xmlns="http://www.w3.org/2000/svg">
<g id="Frame 42">
<path id="free-icon-wallet-3360459 1 (Traced)" fill-rule="evenodd" clip-rule="evenodd" d="M11.8267 0.0508611C11.7694 0.0801641 10.5124 0.816915 9.03345 1.68811L6.34435 3.27212L8.36604 3.28204C9.47798 3.28748 11.29 3.28748 12.3928 3.28204L14.3978 3.27212L13.4746 1.72274C12.6017 0.257668 12.5422 0.168533 12.3815 0.0852204C12.189 -0.0146397 11.9799 -0.0275867 11.8267 0.0508611ZM2.0281 0.860275C1.57982 0.939757 1.08426 1.19774 0.752744 1.52417C0.442596 1.82957 0.267696 2.09755 0.120259 2.4932L0.0156007 2.77416L0.00528715 9.31597C-0.00623743 16.6322 -0.0261613 16.0965 0.278752 16.674C0.607925 17.2973 1.281 17.8027 1.96892 17.9431C2.20265 17.9908 3.30378 17.999 9.54936 17.9996C17.6159 18.0003 17.0936 18.016 17.5315 17.7592C17.9222 17.53 18.2276 17.0894 18.3174 16.6254C18.3393 16.5121 18.3573 16.0353 18.3573 15.5661V14.7128L16.9997 14.6956C15.4392 14.6758 15.3286 14.6585 14.621 14.3224C13.0027 13.5538 12.1793 11.794 12.6408 10.0903C12.727 9.77191 13.0093 9.19041 13.2146 8.90841C13.4236 8.62124 13.8824 8.18871 14.1892 7.98964C14.4955 7.79095 14.9381 7.59449 15.3023 7.49555C15.5739 7.42177 15.7358 7.41174 16.9704 7.39228L18.3377 7.37071L18.3491 6.54717C18.3557 6.06637 18.3424 5.62085 18.3173 5.47671C18.2231 4.93699 17.892 4.50266 17.3888 4.25881L17.0917 4.11482L9.68656 4.09567L2.28145 4.07652L2.09842 3.97103C1.51548 3.63502 1.54517 2.86652 2.15292 2.55996C2.28813 2.49178 2.39845 2.48688 3.79285 2.48688H5.28784L6.66739 1.67632C7.4261 1.23049 8.05601 0.851274 8.06718 0.833615C8.07831 0.815957 6.78987 0.803048 5.20397 0.804925C2.96163 0.807607 2.25551 0.819941 2.0281 0.860275ZM14.4758 1.01786C15.3443 2.49293 15.8038 3.25247 15.8277 3.2527C15.871 3.25312 15.8633 2.41536 15.8177 2.17608C15.7609 1.8773 15.5669 1.51659 15.3473 1.30128C15.1408 1.0988 14.7542 0.890498 14.5139 0.85227L14.3643 0.828444L14.4758 1.01786ZM15.7007 8.63634C15.1635 8.75064 14.5666 9.13123 14.2395 9.56817C13.9026 10.0183 13.749 10.4812 13.748 11.0495C13.7464 12.0164 14.2916 12.847 15.208 13.2737C15.6997 13.5026 15.9298 13.5232 17.8562 13.5106C19.4674 13.5 19.5552 13.4958 19.6814 13.4228C19.7544 13.3807 19.8511 13.2976 19.8963 13.2381C19.9771 13.1318 19.9787 13.096 19.9893 11.0714L20 9.01283L19.9111 8.88478C19.8623 8.81434 19.7726 8.72068 19.712 8.67659C19.6042 8.59822 19.5615 8.59631 17.7782 8.58937C16.3335 8.58378 15.9019 8.59351 15.7007 8.63634ZM16.6651 10.3623C16.8448 10.4637 16.9541 10.5959 17.023 10.7951C17.1961 11.2954 16.7966 11.8332 16.2518 11.8332C16.0079 11.8332 15.9038 11.7945 15.7185 11.635C14.9729 10.9931 15.8035 9.87622 16.6651 10.3623Z" fill="white"/>
</g>
</svg>
