<svg width="10" height="11" viewBox="0 0 10 11" fill="none" xmlns="http://www.w3.org/2000/svg">
<g id="Frame 25">
<path id="delete (3) 1 (Traced)" fill-rule="evenodd" clip-rule="evenodd" d="M3.57143 0.343815V0.68763H1.78571H0V1.37526V2.06289H5H10V1.37526V0.68763H8.21429H6.42857V0.343815V0H5H3.57143V0.343815ZM0.714286 6.27862C0.714286 10.1667 0.706071 9.93082 0.851429 10.2155C1.02359 10.5526 1.29683 10.7898 1.67411 10.9294L1.84152 10.9913L4.94217 10.9971C8.40444 11.0035 8.15127 11.0141 8.50446 10.8484C8.76607 10.7257 8.99663 10.5032 9.12636 10.2481C9.29795 9.91073 9.28571 10.2155 9.28571 6.28086V2.75052H5H0.714286V6.27862Z" fill="url(#paint0_radial_2_3115)"/>
</g>
<defs>
<radialGradient id="paint0_radial_2_3115" cx="0" cy="0" r="1" gradientUnits="userSpaceOnUse" gradientTransform="translate(5 5.5) rotate(63.4349) scale(10.0623 9.14755)">
<stop stop-color="white"/>
<stop offset="1" stop-color="white" stop-opacity="0"/>
</radialGradient>
</defs>
</svg>
