<svg width="26" height="24" viewBox="0 0 26 24" fill="none" xmlns="http://www.w3.org/2000/svg">
<g id="Frame 4">
<path id="premium-icon-beard-373378 1 (Traced)" fill-rule="evenodd" clip-rule="evenodd" d="M0.509765 0.112228C0.109478 0.321343 0.0744057 0.442959 0.0239315 1.79464C-0.0280677 3.18816 0.00990235 6.61816 0.0875199 7.53728C0.42615 11.5489 1.14128 14.5746 2.34992 17.1098C3.94786 20.4615 6.42034 22.6982 9.46735 23.5482C10.7267 23.8995 11.5123 24 13 24C14.129 24 14.7722 23.9464 15.567 23.7862C20.5448 22.7824 23.8341 18.8635 25.2426 12.2582C25.5745 10.7013 25.7501 9.46432 25.9124 7.53728C25.9902 6.61478 26.028 3.23751 25.9761 1.84828C25.9356 0.761191 25.9228 0.649874 25.8179 0.470695C25.6963 0.263083 25.3574 0.0535929 25.1431 0.0535929C24.9129 0.0535929 24.5718 0.279445 24.4546 0.509588C24.3945 0.627611 24.0131 1.76223 23.6072 3.03097C22.734 5.75949 22.5555 6.28866 22.1752 7.2757C21.6303 8.68993 21.173 9.44173 20.8576 9.44173C20.6815 9.44173 20.5157 9.32124 19.9383 8.77346C18.6546 7.55552 17.9141 7.03874 16.9824 6.71091C16.2655 6.45861 15.9587 6.43753 13 6.43753C10.0414 6.43753 9.73461 6.45861 9.01765 6.71091C8.08599 7.03874 7.34549 7.55552 6.06173 8.77346C5.16849 9.62097 5.0492 9.63711 4.61988 8.96921C4.13771 8.21891 3.63795 6.88553 2.50566 3.3278C1.92396 1.50022 1.56525 0.452133 1.48204 0.336954C1.34414 0.146133 1.07342 -5.36318e-05 0.858155 1.47603e-08C0.784705 1.47603e-08 0.627945 0.050535 0.509765 0.112228ZM13.3909 9.31341C14.1999 9.92648 14.9403 10.2101 16.3802 10.4586C17.9477 10.7291 18.3958 10.914 19.0366 11.555C20.2872 12.8059 20.0518 14.572 18.4673 15.8266C17.5965 16.5162 16.1866 16.8963 15.3607 16.6641C15.0118 16.566 14.7093 16.3441 14.5255 16.0511C14.4413 15.917 14.3724 15.7882 14.3724 15.7648C14.3724 15.7415 14.3264 15.5924 14.2701 15.4336C14.2004 15.2372 14.1265 15.125 14.039 15.0829C13.957 15.0434 13.5795 15.021 13 15.021C12.4205 15.021 12.0431 15.0434 11.9611 15.0829C11.8736 15.125 11.7996 15.2372 11.73 15.4336C11.6737 15.5924 11.6276 15.7415 11.6276 15.7648C11.6276 15.7882 11.5587 15.917 11.4746 16.0511C11.0995 16.6487 10.4186 16.8503 9.41651 16.6605C7.4317 16.2845 5.94431 14.6124 6.18596 13.0289C6.34272 12.0015 7.22757 11.0526 8.29825 10.7635C8.46599 10.7181 9.0607 10.5942 9.61983 10.4878C11.1091 10.2048 11.8717 9.90132 12.6442 9.28439C12.8259 9.13927 12.9789 9.01878 12.9842 9.01658C12.9895 9.01438 13.1725 9.14796 13.3909 9.31341Z" fill="white"/>
</g>
</svg>
