<svg width="24" height="45" viewBox="0 0 24 45" fill="none" xmlns="http://www.w3.org/2000/svg">
<g id="Group">
<path id="Vector" d="M20.8581 43.0144C20.8581 43.7314 21.4394 44.3126 22.1563 44.3126C22.8733 44.3126 23.4545 43.7314 23.4545 43.0144C23.4545 33.931 19.6848 28.6013 15.3703 24.019C15.0725 24.3187 14.7758 24.6156 14.4811 24.9102C14.1629 25.2284 13.8474 25.544 13.5356 25.8581C13.9694 26.3199 14.3946 26.7869 14.8079 27.2627H8.64651C9.90024 25.8195 11.2623 24.457 12.6451 23.0743C17.9594 17.7601 23.4545 12.265 23.4545 1.29822C23.4545 0.581257 22.8733 0 22.1563 0C21.4394 0 20.8581 0.581257 20.8581 1.29822C20.8581 1.74472 20.8478 2.18067 20.8283 2.60726H2.62622C2.60674 2.18067 2.59644 1.74472 2.59644 1.29822C2.59644 0.581257 2.01519 0 1.29822 0C0.581257 0 0 0.581257 0 1.29822C0 10.3816 3.76978 15.7113 8.0842 20.2936C8.38201 19.9939 8.67879 19.6971 8.9734 19.4024C9.29164 19.0842 9.6071 18.7687 9.91894 18.4546C9.49901 18.0075 9.08704 17.5555 8.68614 17.0954H14.7686C13.5257 18.5218 12.1777 19.8701 10.8093 21.2383C5.49511 26.5525 0 32.0477 0 43.0144C0 43.7314 0.581257 44.3126 1.29822 44.3126C2.01519 44.3126 2.59644 43.7314 2.59644 43.0144C2.59644 42.5837 2.60631 42.1631 2.6244 41.7508H20.8301C20.8482 42.1631 20.8581 42.5837 20.8581 43.0144ZM16.8515 29.8591C17.5932 30.9186 18.2619 32.0422 18.8316 33.2599H4.62306C5.19272 32.0422 5.8613 30.9186 6.6031 29.8591H16.8515ZM20.5789 5.20371C20.4027 6.37851 20.1469 7.47309 19.8239 8.50171H3.63061C3.30761 7.47309 3.05177 6.37843 2.87565 5.20371H20.5789ZM6.6353 14.499C5.89003 13.4392 5.21756 12.3159 4.64435 11.0982H18.8102C18.237 12.3159 17.5645 13.4392 16.8192 14.499H6.6353ZM2.86898 39.1544C3.04277 37.9797 3.29619 36.8851 3.61659 35.8564H19.838C20.1584 36.8851 20.4118 37.9797 20.5856 39.1544H2.86898Z" fill="white"/>
</g>
</svg>
