<svg width="38" height="23" viewBox="0 0 38 23" fill="none" xmlns="http://www.w3.org/2000/svg">
<g id="Frame 3">
<path id="free-icon-closed-eyes-with-lashes-and-brows-31607 1 (Traced)" fill-rule="evenodd" clip-rule="evenodd" d="M20.9987 0.0463161C18.3825 0.218553 16.6511 0.40672 14.7322 0.727261C12.1305 1.16189 9.29776 1.99907 6.65007 3.11593C5.68592 3.52262 3.27966 4.77528 2.49019 5.28149C0.823754 6.35006 0.0544989 6.90127 0.0120556 7.05722C-0.0388614 7.24446 0.0764266 7.40105 0.265154 7.40105C0.339634 7.40105 1.16337 7.14373 2.09579 6.82926C6.51152 5.33993 11.0102 4.69834 16.0928 4.83322C19.3688 4.92009 19.6983 4.96324 23.9581 5.86349C24.625 6.00444 25.5951 6.18196 26.1137 6.25797C28.8057 6.65252 34.0563 6.86584 36.7198 6.68889C37.8331 6.61488 37.9316 6.58923 37.9922 6.35699C38.0277 6.22133 37.949 6.08267 37.6124 5.68719C36.2232 4.05533 33.4594 2.27132 30.6618 1.20075C29.4101 0.721761 28.7213 0.519663 27.4154 0.248485C26.3321 0.0235276 26.2763 0.0193128 24.1206 0.00238205C22.9146 -0.00711917 21.5097 0.0126689 20.9987 0.0463161ZM5.08302 12.179C4.83029 12.4219 4.79446 12.4977 4.79446 12.7897C4.79446 12.9731 4.84486 13.2168 4.90641 13.3312C4.99122 13.4888 5.61954 14.0278 6.11808 14.3706C6.13065 14.3792 5.64838 15.1663 5.04645 16.1197C4.1014 17.6166 3.95207 17.8937 3.95207 18.1502C3.95207 18.7058 4.38668 19.1363 4.94751 19.1363C5.49794 19.1363 5.64757 18.9797 6.74366 17.2561C7.30464 16.3739 7.77694 15.62 7.79322 15.5807C7.8095 15.5414 8.08631 15.6481 8.40846 15.8178C9.22707 16.2492 10.8098 16.9754 11.5441 17.2566C11.8902 17.3891 12.1481 17.5281 12.1309 17.5727C12.114 17.6165 11.8748 18.3863 11.5993 19.2832C11.0468 21.0816 11.0314 21.2643 11.4027 21.6212C11.882 22.0819 12.7248 22.0009 13.0123 21.4664C13.0768 21.3465 13.3477 20.5518 13.6143 19.7004C13.8807 18.849 14.1105 18.1411 14.1248 18.1272C14.139 18.1134 14.5124 18.1836 14.9545 18.2832C16.2138 18.5671 17.6792 18.7672 19.1033 18.8496L19.4006 18.8668L19.4378 20.6204C19.4699 22.1366 19.4927 22.4001 19.606 22.5661C19.9511 23.0716 20.6557 23.1474 21.1299 22.7301L21.4075 22.4857L21.4447 20.6763L21.4819 18.8668L21.965 18.8165C23.7482 18.6304 24.9601 18.431 26.1991 18.1196C26.5041 18.043 26.7658 17.9919 26.7805 18.0061C26.7952 18.0202 27.1027 18.7768 27.4635 19.6873C27.828 20.6067 28.1953 21.4201 28.2896 21.5166C28.6903 21.9265 29.4582 21.8844 29.8165 21.4329C30.1398 21.0256 30.0996 20.7714 29.4565 19.1526C29.1443 18.3667 28.8555 17.6399 28.8148 17.5372C28.7416 17.353 28.7499 17.3472 29.4596 17.0794C30.4691 16.6987 32.1127 15.9382 33.0776 15.4055C33.5273 15.1572 33.9168 14.9425 33.9432 14.9284C33.9695 14.9144 34.3664 15.3852 34.8252 15.9747C35.8443 17.2842 35.9792 17.4023 36.4544 17.4023C36.9227 17.4023 37.2781 17.1764 37.4184 16.7894C37.5896 16.3176 37.4926 16.0982 36.6073 14.9535C36.1582 14.3727 35.7907 13.8675 35.7907 13.8308C35.7907 13.7941 35.8593 13.7287 35.9433 13.6855C36.3322 13.4855 36.5028 12.8272 36.2753 12.4045C36.088 12.0564 35.8155 11.9016 35.3899 11.9016C35.044 11.9016 34.9413 11.9452 34.2706 12.3763C30.4053 14.8604 26.7792 16.2541 22.7455 16.806C21.6311 16.9586 18.859 16.9799 17.7281 16.8447C13.7168 16.3651 9.6967 14.7219 6.77919 12.3691C6.21746 11.9161 6.18669 11.9016 5.7856 11.9016C5.40383 11.9016 5.3492 11.9232 5.08302 12.179Z" fill="white"/>
</g>
</svg>
