<svg width="35" height="35" viewBox="0 0 35 35" fill="none" xmlns="http://www.w3.org/2000/svg">
<g id="free-icon-face-with-hair-and-eyeglasses-33913 1" clip-path="url(#clip0_2_3785)">
<g id="Group">
<path id="Vector" d="M30.5802 32.2112C30.5802 32.2112 31.9256 23.926 29.8421 18.9031C29.8421 18.9031 28.725 14.8551 28.7303 13.7209C28.7303 13.7209 17.0512 21.4422 12.5232 20.7785C12.5232 20.7785 18.5252 16.758 19.5043 14.6576C19.5043 14.6576 10.257 21.0928 7.18382 20.5958C7.18382 20.5958 10.2666 18.5017 10.9186 17.375C10.9186 17.375 3.6338 18.8044 3.4416 26.2463L2.60905 32.3885C2.60905 32.3885 1.05651 24.8924 0.541477 23.1604C-1.04716 17.8168 1.13616 8.67573 3.51912 6.83223C3.51912 6.83223 7.91655 -0.75629 23.6022 1.57251C23.6022 1.57251 31.9203 1.97711 34.7886 13.2059C35.4586 15.8278 34.402 21.7077 33.544 23.9356C32.6934 26.1465 30.4878 33.871 30.4878 33.871L30.5802 32.2112ZM14.3359 30.8169C15.7897 29.756 16.2665 25.5699 16.3769 24.3094C16.3971 24.0981 16.3217 23.8878 16.1709 23.7306C16.0201 23.5735 15.8088 23.4843 15.5858 23.4843H5.48474C5.26174 23.4843 5.05041 23.5735 4.89962 23.7306C4.74883 23.8857 4.67449 24.0981 4.69254 24.3094C4.80298 25.5699 5.28085 29.756 6.73463 30.8169C7.82098 31.6069 9.75474 31.6919 10.5353 31.6919C11.3158 31.6919 13.2485 31.6069 14.3359 30.8169ZM14.7054 25.006C14.4463 27.063 13.9037 29.2176 13.3738 29.602C12.9862 29.8856 11.9582 30.168 10.5353 30.168C9.11122 30.168 8.08327 29.8824 7.69673 29.602C7.16789 29.2176 6.62525 27.0598 6.36508 25.006H14.7054ZM28.2652 30.8169C29.7179 29.756 30.1947 25.5699 30.3062 24.3094C30.3264 24.0981 30.2488 23.8878 30.1012 23.7306C29.9494 23.5735 29.7381 23.4843 29.5161 23.4843H19.413C19.191 23.4843 18.9797 23.5735 18.8278 23.7306C18.676 23.8857 18.6027 24.0981 18.6229 24.3094C18.7333 25.5699 19.2112 29.756 20.6639 30.8169C21.7492 31.6069 23.6851 31.6919 24.4645 31.6919C25.244 31.6919 27.1767 31.6069 28.2652 30.8169ZM28.6337 25.006C28.3756 27.063 27.8319 29.2176 27.302 29.602C26.9155 29.8856 25.8865 30.168 24.4635 30.168C23.0394 30.168 22.0115 29.8824 21.6239 29.602C21.0961 29.2176 20.5513 27.0598 20.2922 25.006H28.6337ZM20.1329 25.6963C20.1329 25.2757 19.7772 24.9338 19.3386 24.9338H15.659C15.2194 24.9338 14.8647 25.2747 14.8647 25.6963C14.8647 26.1179 15.2194 26.4587 15.659 26.4587H19.3386C19.7783 26.4587 20.1329 26.1168 20.1329 25.6963Z" fill="white"/>
</g>
</g>
<defs>
<clipPath id="clip0_2_3785">
<rect width="35" height="35" fill="white"/>
</clipPath>
</defs>
</svg>
