<svg width="35" height="35" viewBox="0 0 35 35" fill="none" xmlns="http://www.w3.org/2000/svg">
<g id="free-icon-beauty-1829211 1">
<path id="Vector" d="M19.1395 7.40631L17.8997 3.68607C17.7509 3.2412 17.3325 2.93945 16.8614 2.93945C16.3904 2.93945 15.9733 3.2412 15.8246 3.68767L14.585 7.40791L10.8648 8.64586C10.4186 8.7962 10.1182 9.21329 10.1182 9.68433C10.1182 10.1554 10.4186 10.5725 10.8648 10.7225L14.585 11.9621L15.8246 15.6823C15.9733 16.1285 16.3917 16.4305 16.8614 16.4305C17.3309 16.4305 17.7496 16.1285 17.8983 15.6823L19.1379 11.9621L22.8581 10.7225C23.3043 10.5725 23.6063 10.1554 23.6063 9.68433C23.6063 9.21329 23.3043 8.7962 22.8581 8.64586L19.1395 7.40631Z" fill="white"/>
<path id="Vector_2" d="M27.7889 19.9206L28.6755 17.2604L31.3356 16.3752C31.7818 16.2235 32.0835 15.8064 32.0835 15.3354C32.0835 14.8644 31.7818 14.4473 31.3356 14.2972L28.6755 13.412L27.7889 10.7519C27.6402 10.3056 27.2215 10.0039 26.752 10.0039C26.2823 10.0039 25.8639 10.3056 25.7152 10.7519L24.8284 13.412L22.1669 14.2972C21.7207 14.4473 21.4189 14.8644 21.4189 15.3354C21.4189 15.8064 21.7207 16.2235 22.1669 16.3739L24.827 17.2591L25.7136 19.919C25.8623 20.3652 26.281 20.6672 26.7504 20.6672C27.2201 20.6672 27.6402 20.3652 27.7889 19.9206Z" fill="white"/>
<path id="Vector_3" d="M1.45824 10.9602C2.26334 10.9602 2.91676 10.3084 2.91676 9.50195V7.31445C2.91676 6.50936 3.57151 5.85621 4.375 5.85621H6.5625C7.36759 5.85621 8.02075 5.20412 8.02075 4.3977C8.02075 3.59127 7.36759 2.93945 6.5625 2.93945H4.375C1.96293 2.93945 0 4.90238 0 7.31445V9.50195C0 10.3084 0.65342 10.9602 1.45824 10.9602Z" fill="white"/>
<path id="Vector_4" d="M30.6252 2.93945H28.4377C27.6326 2.93945 26.9795 3.59127 26.9795 4.3977C26.9795 5.20412 27.6326 5.85621 28.4377 5.85621H30.6252C31.4287 5.85621 32.0835 6.50936 32.0835 7.31445V9.50195C32.0835 10.3084 32.7369 10.9602 33.542 10.9602C34.3468 10.9602 35.0002 10.3084 35.0002 9.50195V7.31445C35.0002 4.90238 33.0373 2.93945 30.6252 2.93945Z" fill="white"/>
<path id="Vector_5" d="M6.5625 32.106C7.36759 32.106 8.02075 31.4539 8.02075 30.6475C8.02075 29.841 7.36759 29.1892 6.5625 29.1892H4.375C3.57151 29.1892 2.91676 28.5358 2.91676 27.731V25.5435C2.91676 24.737 2.26334 24.085 1.45824 24.085C0.65342 24.085 0 24.737 0 25.5435V27.731C0 30.143 1.96293 32.106 4.375 32.106H6.5625Z" fill="white"/>
<path id="Vector_6" d="M33.542 24.085C32.7369 24.085 32.0835 24.737 32.0835 25.5435V27.731C32.0835 28.5358 31.4287 29.1892 30.6252 29.1892H28.4377C27.6326 29.1892 26.9795 29.841 26.9795 30.6475C26.9795 31.4539 27.6326 32.106 28.4377 32.106H30.6252C33.0373 32.106 35.0002 30.143 35.0002 27.731V25.5435C35.0002 24.737 34.3468 24.085 33.542 24.085Z" fill="white"/>
<path id="Vector_7" d="M26.0418 24.4776C26.491 23.8098 26.3131 22.9043 25.6453 22.4535C24.9772 22.003 24.0717 22.1809 23.6209 22.8503C22.18 24.994 19.7827 26.2728 17.2042 26.2728C12.9446 26.2728 9.47961 22.8079 9.47961 18.5482C9.47961 17.1655 9.84838 15.8093 10.5456 14.6282C10.9555 13.934 10.725 13.04 10.0324 12.6303C9.33809 12.2218 8.44408 12.4522 8.03419 13.1449C7.07048 14.7754 6.56152 16.6435 6.56152 18.5482C6.56286 24.4165 11.336 29.1896 17.2042 29.1896C20.7538 29.1896 24.0586 27.428 26.0418 24.4776Z" fill="white"/>
</g>
</svg>
