<svg width="32" height="30" viewBox="0 0 32 30" fill="none" xmlns="http://www.w3.org/2000/svg">
<path fill-rule="evenodd" clip-rule="evenodd" d="M11.6965 0.0539603C10.5432 0.280919 9.65481 1.25337 9.46537 2.49639C9.43453 2.69839 9.37291 2.76088 8.88468 3.08493C8.58433 3.2843 8.12738 3.61704 7.86932 3.82442C7.61126 4.0318 7.39004 4.20865 7.37772 4.21753C7.36539 4.22635 7.54838 4.42622 7.78436 4.66163C8.02034 4.89703 8.28379 5.20756 8.36981 5.35176C8.45583 5.49589 8.54886 5.61456 8.57645 5.6155C8.6041 5.61644 8.81524 5.4668 9.04565 5.28301C9.27613 5.09928 9.5915 4.86331 9.74665 4.75871L10.0286 4.5686L10.3367 4.84755C12.0154 6.36719 14.6437 5.4491 15.0141 3.21361C15.3241 1.34327 13.581 -0.31688 11.6965 0.0539603ZM19.1996 0.054711C18.814 0.130405 18.2078 0.430806 17.9008 0.698239C17.4183 1.11881 17.0657 1.79374 16.9735 2.47368L16.9289 2.80211H17.8732C18.6817 2.80211 18.8175 2.78828 18.8175 2.70577C18.8175 2.65278 18.8742 2.49833 18.9434 2.36258C19.085 2.08501 19.4455 1.86375 19.7559 1.86375C20.2319 1.86375 20.6943 2.32611 20.6943 2.80211C20.6943 3.11252 20.473 3.47291 20.1954 3.61454C20.0597 3.68379 19.9052 3.74047 19.8522 3.74047C19.7698 3.74047 19.7559 3.87565 19.7559 4.67883C19.7559 5.74575 19.7113 5.6785 20.3315 5.54681C20.7846 5.4506 21.2988 5.18148 21.6677 4.84755L21.9759 4.5686L22.2578 4.75871C22.413 4.86331 22.7283 5.09928 22.9588 5.28301C23.1892 5.4668 23.4004 5.61644 23.428 5.6155C23.4556 5.61456 23.5486 5.49589 23.6347 5.35176C23.7207 5.20756 23.9841 4.89703 24.2201 4.66163C24.4561 4.42622 24.6391 4.22635 24.6267 4.21753C24.6144 4.20865 24.3932 4.0318 24.1351 3.82442C23.8771 3.61704 23.4201 3.2843 23.1198 3.08493C22.6316 2.76088 22.5699 2.69839 22.5391 2.49639C22.3843 1.48102 21.7928 0.663144 20.9263 0.266468C20.361 0.00766775 19.7935 -0.0619585 19.1996 0.054711ZM12.6881 1.98967C12.9657 2.1313 13.187 2.4917 13.187 2.80211C13.187 3.27811 12.7246 3.74047 12.2486 3.74047C11.7726 3.74047 11.3102 3.27811 11.3102 2.80211C11.3102 2.50127 11.5316 2.13218 11.7957 1.99274C12.0976 1.83341 12.3799 1.83247 12.6881 1.98967ZM3.86543 5.2207C3.45353 5.3024 2.80977 5.68582 2.47207 6.05053C1.65058 6.93778 1.46334 8.06356 1.96645 9.09094L2.13049 9.42593L2.63823 9.39071C3.54061 9.32809 4.49385 9.58045 5.28093 10.0903C5.51747 10.2435 5.74813 10.3695 5.79355 10.3702C6.03998 10.3742 6.76224 9.69868 6.99103 9.25027C7.70948 7.84204 7.14311 6.16244 5.71116 5.45479C5.25859 5.23115 5.18239 5.21344 4.62316 5.202C4.2924 5.19518 3.95145 5.20362 3.86543 5.2207ZM26.5128 5.34469C26.0063 5.55501 25.6743 5.79291 25.365 6.16719C24.3131 7.43974 24.541 9.27955 25.8633 10.1892C26.0091 10.2895 26.1655 10.3709 26.2109 10.3702C26.2563 10.3695 26.487 10.2435 26.7235 10.0903C27.5126 9.57914 28.4635 9.32809 29.3716 9.39109L29.8847 9.42669L30.0458 9.09757C30.7105 7.73901 30.0876 6.08587 28.6575 5.41306C28.278 5.23453 28.1631 5.21126 27.576 5.19461C26.9808 5.17772 26.8809 5.1918 26.5128 5.34469ZM2.45781 11.288C1.44695 11.4985 0.713861 12.0262 0.300146 12.8413C-0.242445 13.9102 -0.0401855 15.0991 0.832351 15.9701C1.03936 16.1767 1.28291 16.3843 1.37356 16.4312C1.52527 16.5099 1.56087 16.5012 1.82331 16.3206C2.68697 15.7265 3.58816 15.466 4.60114 15.5176L5.25459 15.551L5.4078 15.2162C6.15872 13.5761 5.15399 11.6492 3.37176 11.3112C3.03549 11.2474 2.69404 11.2387 2.45781 11.288ZM28.5837 11.3111C27.7633 11.4839 26.9758 12.1003 26.6291 12.8411C26.2605 13.6289 26.2465 14.4457 26.5889 15.2002L26.735 15.5222L27.6404 15.5309C28.4698 15.5389 28.5849 15.5544 29.0138 15.7163C29.4165 15.8682 29.7603 16.0515 30.3685 16.4384C30.4892 16.5151 30.5329 16.5007 30.8225 16.2882C31.9564 15.4558 32.3167 14.0476 31.7043 12.8413C31.3684 12.1794 30.6614 11.5865 29.9637 11.3814C29.6 11.2746 28.9216 11.24 28.5837 11.3111ZM3.78697 17.4459C3.20941 17.582 2.54714 18.0589 2.16577 18.6131C1.93611 18.9469 1.75694 19.458 1.70326 19.9326C1.54242 21.354 2.75278 22.8291 4.16259 22.93L4.59038 22.9605L4.71275 22.6877C5.16313 21.6837 6.0508 20.7982 7.02619 20.3801C7.27768 20.2723 7.30627 20.2389 7.30627 20.0521C7.30627 19.7407 7.13598 19.1472 6.94711 18.8002C6.63412 18.2252 6.02897 17.7261 5.37934 17.5073C4.96956 17.3692 4.23272 17.3408 3.78697 17.4459ZM26.6167 17.5038C25.6897 17.8326 25.0386 18.5371 24.7941 19.4758C24.7414 19.6783 24.6982 19.9342 24.6982 20.0444C24.6982 20.2311 24.7296 20.2603 25.1589 20.4724C26.0359 20.9057 26.792 21.6631 27.2098 22.5268L27.4195 22.9602L27.8446 22.9298C29.2516 22.8291 30.4619 21.3526 30.3012 19.9326C30.1832 18.8897 29.5859 18.0472 28.6561 17.6121C28.2984 17.4448 28.1595 17.4161 27.6126 17.3967C27.0943 17.3783 26.9165 17.3974 26.6167 17.5038ZM8.38082 21.8865C7.51804 22.0563 6.75799 22.6915 6.36511 23.5712C6.23079 23.8719 6.21146 24.0057 6.21146 24.6346C6.21146 25.338 6.21665 25.3646 6.44444 25.8307C7.49458 27.9786 10.498 27.9439 11.5169 25.7719C11.6837 25.4164 11.7164 25.2654 11.7368 24.7598C11.7564 24.2717 11.7365 24.0937 11.6251 23.764C11.158 22.3814 9.81515 21.6042 8.38082 21.8865ZM22.3141 21.9102C21.4259 22.1552 20.6822 22.8678 20.3794 23.764C20.268 24.0937 20.248 24.2717 20.2677 24.7598C20.2881 25.2677 20.3205 25.4158 20.4907 25.7787C20.7509 26.3332 21.2834 26.8926 21.7873 27.1407C23.2069 27.8396 24.9033 27.2323 25.5919 25.7787C25.7821 25.3771 25.793 25.315 25.793 24.6346C25.793 24.0057 25.7737 23.8719 25.6394 23.5712C25.3541 22.9326 24.8794 22.4163 24.3109 22.1263C23.7419 21.836 22.9098 21.746 22.3141 21.9102ZM15.4459 24.4521C14.0249 24.7311 13.0019 26.1939 13.2367 27.611C13.4401 28.8382 14.3635 29.7615 15.5907 29.9649C17.3997 30.2646 19.0675 28.5969 18.7678 26.788C18.5036 25.194 17.0114 24.1447 15.4459 24.4521Z" fill="white" fill-opacity="0.25"/>
</svg>
