<svg width="36" height="36" viewBox="0 0 36 36" fill="none" xmlns="http://www.w3.org/2000/svg">
<g id="Frame" opacity="0.25">
<path id="Vector" d="M23.6924 3.786C23.1446 3.67915 22.5767 3.7943 22.1137 4.10612C21.6507 4.41794 21.3306 4.90089 21.2236 5.44875L25.3552 6.25482C25.4081 5.98353 25.4071 5.70448 25.3522 5.43358C25.2973 5.16269 25.1896 4.90527 25.0352 4.67601C24.8808 4.44676 24.6827 4.25016 24.4523 4.09745C24.2219 3.94474 23.9637 3.83891 23.6924 3.786Z" fill="white"/>
<path id="Vector_2" d="M8.81228 19.4531C8.81228 19.4531 2.48106 23.9683 1.19519 25.5394C1.01339 25.7697 0.879464 26.0341 0.80128 26.3169C0.723096 26.5998 0.702229 26.8954 0.739907 27.1864C0.777585 27.4775 0.873048 27.758 1.02069 28.0116C1.16832 28.2652 1.36516 28.4868 1.59963 28.6632C3.97563 30.3746 6.31703 27.8844 7.86362 26.3035C12.1234 27.4015 15.1874 30.7788 17.1561 31.8166C21.1499 33.9206 23.6904 27.5267 25.3939 25.394C18.3281 21.099 13.8281 19.9858 8.81228 19.4531Z" fill="white"/>
<path id="Vector_3" d="M35.0161 22.2721C34.9098 23.0481 34.5286 23.7602 33.9418 24.2789C33.3549 24.7977 32.6014 25.0885 31.8182 25.0987C31.1011 25.1043 30.3304 25.1015 29.6217 25.0705C29.3453 25.0578 29.0698 25.1105 28.8176 25.2244C28.5654 25.3383 28.3437 25.5101 28.1704 25.7259C26.8148 27.4246 23.1557 31.6209 19.7048 32.189C18.8351 32.3545 17.935 32.2238 17.1482 31.8177C15.1795 30.7799 12.1139 27.4021 7.85574 26.3024C4.67199 25.484 2.29824 25.9284 0.762615 27.388C0.693973 27.0677 0.696426 26.7363 0.769804 26.417C0.843182 26.0977 0.985697 25.7984 1.1873 25.5402C2.47262 23.968 7.07949 18.5568 7.07949 18.5568C7.76855 9.06461 14.2739 3.8868 23.2795 5.29305C27.6473 5.97367 31.087 8.30242 32.8195 10.8309C35.3339 14.4984 35.6207 17.9915 35.0161 22.2721Z" fill="white"/>
<path id="Vector_4" d="M28.8904 25.1942C28.6077 25.3046 28.3592 25.4881 28.1704 25.7257C26.8148 27.4245 23.1557 31.6207 19.7048 32.1889C18.8351 32.3544 17.935 32.2237 17.1482 31.8176C15.1795 30.7798 12.1139 27.402 7.85574 26.3023C4.67199 25.4839 2.29824 25.9282 0.762615 27.3879C0.693973 27.0676 0.696426 26.7361 0.769804 26.4169C0.843182 26.0976 0.985697 25.7983 1.1873 25.5401C2.47262 23.9679 7.07949 18.5567 7.07949 18.5567C9.31788 17.8943 11.6908 17.8303 13.9617 18.3711C19.4461 19.6592 22.6186 23.0904 28.8904 25.1942Z" fill="white"/>
<path id="Vector_5" d="M28.89 25.6163C28.8443 25.6164 28.799 25.609 28.7558 25.5944C25.758 24.5889 23.4945 23.3039 21.3055 22.0613C18.9385 20.7178 16.7026 19.4485 13.8656 18.7819C11.6731 18.2629 9.38333 18.3225 7.22078 18.9549C7.11527 18.9922 6.99926 18.986 6.89828 18.9378C6.7973 18.8896 6.71962 18.8032 6.68233 18.6977C6.64503 18.5922 6.65118 18.4762 6.69941 18.3752C6.74765 18.2742 6.83402 18.1965 6.93953 18.1592C9.25352 17.4654 11.71 17.3969 14.0591 17.9607C17.0153 18.6548 19.3024 19.953 21.7237 21.3278C23.8781 22.5504 26.1053 23.8149 29.0258 24.7945C29.1207 24.8263 29.2012 24.8909 29.2528 24.9766C29.3045 25.0623 29.324 25.1636 29.3079 25.2624C29.2918 25.3612 29.2411 25.451 29.1648 25.5158C29.0886 25.5807 28.9917 25.6163 28.8917 25.6163H28.89Z" fill="white"/>
</g>
</svg>
