<svg width="36" height="36" viewBox="0 0 36 36" fill="none" xmlns="http://www.w3.org/2000/svg">
<g id="Frame" opacity="0.25">
<g id="Group">
<g id="Group_2">
<path id="Vector" d="M8.69005 6.82764C8.34728 6.82764 8.06934 7.10551 8.06934 7.44836V13.6553C8.06934 13.998 8.34721 14.276 8.69005 14.276C9.03283 14.276 9.31077 13.9981 9.31077 13.6553V7.44836C9.3107 7.10558 9.03283 6.82764 8.69005 6.82764Z" fill="white"/>
<path id="Vector_2" d="M27.3102 6.82764C26.9674 6.82764 26.6895 7.10551 26.6895 7.44836V13.6553C26.6895 13.998 26.9673 14.276 27.3102 14.276C27.653 14.276 27.9309 13.9981 27.9309 13.6553V7.44836C27.9309 7.10558 27.653 6.82764 27.3102 6.82764Z" fill="white"/>
</g>
<g id="Group_3">
<path id="Vector_3" d="M9.38462 16.0016C10.212 15.6686 10.6872 14.7957 10.5176 13.9201C10.348 13.0445 9.58135 12.4121 8.68943 12.4121C7.79752 12.4121 7.0309 13.0445 6.86131 13.9201C6.69171 14.7957 7.16681 15.6686 7.99425 16.0016H9.38462Z" fill="white"/>
<path id="Vector_4" d="M28.0047 16.0016C28.8321 15.6686 29.3073 14.7957 29.1377 13.9201C28.9681 13.0445 28.2015 12.4121 27.3095 12.4121C26.4176 12.4121 25.651 13.0445 25.4814 13.9201C25.3118 14.7957 25.7869 15.6686 26.6144 16.0016H28.0047Z" fill="white"/>
</g>
<path id="Vector_5" d="M9.21459 15.7287C9.1009 15.5484 8.90269 15.439 8.6895 15.439C8.47631 15.439 8.27803 15.5484 8.16441 15.7287L2.03632 25.4481C-0.434673 29.7836 3.15977 35.9998 8.6895 35.9998C14.2186 35.9998 17.8137 29.7836 15.342 25.4481L9.21459 15.7287Z" fill="white"/>
<path id="Vector_6" d="M7.5592 21.3437L8.68947 19.5518L9.81975 21.3437L10.9494 23.1356L12.0797 24.9275L13.2093 26.7194C13.3776 27.0251 13.5 27.3539 13.5724 27.6951C13.646 28.0438 13.6724 28.4008 13.6506 28.7565C13.6277 29.1304 13.5589 29.4999 13.4458 29.857C13.3257 30.2382 13.1632 30.6049 12.9616 30.95C12.7346 31.3413 12.4602 31.7032 12.1448 32.0275C11.8418 32.3389 11.5001 32.6101 11.1281 32.8344C10.7631 33.0542 10.3704 33.2243 9.96051 33.3403C9.12935 33.5736 8.24995 33.5736 7.41879 33.3403C7.00865 33.2242 6.61582 33.0542 6.25061 32.8344C5.87845 32.6103 5.53673 32.3391 5.2339 32.0275C4.91805 31.7029 4.64362 31.3404 4.41708 30.9482C4.21535 30.6033 4.05293 30.2369 3.9329 29.8557C3.8204 29.4983 3.75157 29.1285 3.72808 28.7546C3.70636 28.3991 3.73265 28.0424 3.80627 27.6939C3.87869 27.3526 4.00104 27.0238 4.16936 26.7182L5.29901 24.9262L6.42928 23.1343L7.5592 21.3437Z" fill="white"/>
<path id="Vector_7" d="M8.68907 32.2762C7.64135 32.2769 6.63412 31.8713 5.87924 31.1447C5.62542 30.9015 5.4033 30.6273 5.21824 30.3285C5.05476 30.0663 4.92208 29.7862 4.82287 29.4936C4.72816 29.2127 4.67057 28.9205 4.65159 28.6247C4.63331 28.3359 4.6563 28.046 4.71986 27.7637C4.78427 27.4798 4.89234 27.2076 5.04014 26.9568L8.17396 22.3047C8.29806 22.1209 8.51076 22.0172 8.73196 22.0328C8.95317 22.0483 9.14934 22.1807 9.24651 22.3801C9.34368 22.5794 9.32709 22.8155 9.20306 22.9993L6.08969 27.6209C6.01727 27.7528 5.96383 27.8943 5.93078 28.0411C5.89338 28.2074 5.88002 28.3781 5.89106 28.5482C5.90392 28.7364 5.94105 28.922 6.00152 29.1007C6.06986 29.3014 6.16106 29.4936 6.27335 29.6736C6.40413 29.8835 6.56029 30.0765 6.73825 30.2483C6.9115 30.4139 7.10479 30.5571 7.31362 30.6748C7.73317 30.9119 8.20715 31.036 8.68907 31.0348C9.03185 31.0348 9.30979 31.3126 9.30979 31.6555C9.30972 31.9983 9.03185 32.2762 8.68907 32.2762Z" fill="white"/>
<path id="Vector_8" d="M27.8347 15.7287C27.721 15.5484 27.5228 15.439 27.3096 15.439C27.0964 15.439 26.8982 15.5484 26.7845 15.7287L20.6564 25.4481C18.1855 29.7836 21.7798 35.9998 27.3095 35.9998C32.8386 35.9998 36.4337 29.7836 33.9621 25.4481L27.8347 15.7287Z" fill="white"/>
<g id="Group_4">
<path id="Vector_9" d="M26.1802 21.3437L27.3105 19.5518L28.4408 21.3437L29.5704 23.1356L30.7007 24.9275L31.8303 26.7194C31.9986 27.0251 32.121 27.3539 32.1934 27.6951C32.267 28.0438 32.2934 28.4008 32.2716 28.7565C32.2487 29.1304 32.1799 29.4999 32.0668 29.857C31.9467 30.2382 31.7843 30.6049 31.5827 30.95C31.3556 31.3413 31.0813 31.7032 30.7659 32.0275C30.4629 32.3389 30.1212 32.6101 29.7491 32.8344C29.3842 33.0542 28.9915 33.2243 28.5816 33.3403C27.7504 33.5736 26.871 33.5736 26.0399 33.3403C25.6297 33.2242 25.2369 33.0542 24.8717 32.8344C24.4995 32.6103 24.1578 32.3391 23.855 32.0275C23.5391 31.7029 23.2647 31.3404 23.0382 30.9482C22.8364 30.6033 22.674 30.2369 22.554 29.8557C22.4415 29.4983 22.3727 29.1285 22.3492 28.7546C22.3275 28.3991 22.3537 28.0424 22.4274 27.6939C22.4998 27.3526 22.6221 27.0238 22.7905 26.7182L23.9201 24.9262L25.0504 23.1343L26.1802 21.3437Z" fill="white"/>
<path id="Vector_10" d="M8.68955 8.68964C11.0891 8.68964 13.0344 6.7444 13.0344 4.34482C13.0344 1.94524 11.0891 0 8.68955 0C6.28997 0 4.34473 1.94524 4.34473 4.34482C4.34473 6.7444 6.28997 8.68964 8.68955 8.68964Z" fill="white"/>
<path id="Vector_11" d="M27.3097 8.68964C29.7092 8.68964 31.6545 6.7444 31.6545 4.34482C31.6545 1.94524 29.7092 0 27.3097 0C24.9101 0 22.9648 1.94524 22.9648 4.34482C22.9648 6.7444 24.9101 8.68964 27.3097 8.68964Z" fill="white"/>
</g>
<g id="Group_5">
<path id="Vector_12" d="M8.68984 5.58669C8.00422 5.58669 7.44847 5.03094 7.44847 4.34533C7.44847 4.00255 7.17059 3.72461 6.82775 3.72461C6.48491 3.72461 6.20703 4.00248 6.20703 4.34533C6.20703 5.71649 7.3186 6.82806 8.68977 6.82806C9.03254 6.82806 9.31048 6.55018 9.31048 6.20734C9.31048 5.86464 9.03261 5.58669 8.68984 5.58669Z" fill="white"/>
<path id="Vector_13" d="M8.68908 1.8623C8.3463 1.8623 8.06836 2.14018 8.06836 2.48302C8.06836 2.82587 8.34623 3.10374 8.68908 3.10374C9.3747 3.10374 9.93045 3.65949 9.93045 4.34511C9.93045 4.68788 10.2083 4.96583 10.5512 4.96583C10.894 4.96583 11.1719 4.68795 11.1719 4.34511C11.1718 2.97387 10.0602 1.8623 8.68908 1.8623Z" fill="white"/>
<path id="Vector_14" d="M27.31 5.58669C26.6243 5.58669 26.0686 5.03094 26.0686 4.34533C26.0686 4.00255 25.7907 3.72461 25.4479 3.72461C25.105 3.72461 24.8271 4.00248 24.8271 4.34533C24.8271 5.71649 25.9387 6.82806 27.3099 6.82806C27.6527 6.82806 27.9306 6.55018 27.9306 6.20734C27.9307 5.86464 27.6528 5.58669 27.31 5.58669Z" fill="white"/>
<path id="Vector_15" d="M27.3111 1.8623C26.9684 1.8623 26.6904 2.14018 26.6904 2.48302C26.6904 2.82587 26.9683 3.10374 27.3111 3.10374C27.9968 3.10374 28.5525 3.65949 28.5525 4.34511C28.5525 4.68788 28.8304 4.96583 29.1732 4.96583C29.5161 4.96583 29.794 4.68795 29.794 4.34511C29.794 2.97387 28.6824 1.8623 27.3111 1.8623Z" fill="white"/>
<path id="Vector_16" d="M27.63 32.2762C26.9344 32.2776 26.2502 32.099 25.6439 31.7579C25.3442 31.5887 25.0669 31.3827 24.8183 31.1446C24.5648 30.9014 24.3429 30.6271 24.1579 30.3285C23.9939 30.0666 23.8612 29.7864 23.7625 29.4936C23.6678 29.2127 23.6102 28.9205 23.5912 28.6246C23.5726 28.3359 23.5956 28.046 23.6595 27.7637C23.7236 27.4797 23.8317 27.2075 23.9798 26.9568L27.1136 22.3047C27.2377 22.1209 27.4504 22.0172 27.6716 22.0328C27.8928 22.0483 28.089 22.1807 28.1861 22.3801C28.2833 22.5794 28.2667 22.8155 28.1427 22.9993L25.03 27.6209C24.9576 27.753 24.904 27.8944 24.8704 28.0411C24.8332 28.2074 24.8201 28.3782 24.8313 28.5482C24.8438 28.7364 24.881 28.9221 24.9418 29.1007C25.0101 29.3014 25.1013 29.4936 25.2136 29.6736C25.3444 29.8835 25.5006 30.0765 25.6785 30.2483C25.8516 30.414 26.045 30.5573 26.2539 30.6747C26.461 30.7913 26.6821 30.8812 26.9118 30.9423C27.1463 31.0035 27.3876 31.0346 27.63 31.0347C27.9727 31.0347 28.2507 31.3126 28.2507 31.6555C28.2507 31.9983 27.9728 32.2762 27.63 32.2762Z" fill="white"/>
</g>
</g>
</g>
</svg>
