<svg width="29" height="29" viewBox="0 0 29 29" fill="none" xmlns="http://www.w3.org/2000/svg">
<g id="Frame" opacity="0.25" clip-path="url(#clip0_2_548)">
<g id="Group">
<path id="Vector" d="M28.3446 13.7293C27.9563 13.6397 27.5638 13.8264 27.3896 14.179C26.5076 15.9571 24.5891 17.1053 22.5879 17.1053H17.8984C17.2903 17.1053 16.6904 17.2406 16.1187 17.5044C15.4674 17.8014 14.9157 18.2545 14.5009 18.8079C14.0877 18.2578 13.5425 17.8098 12.9037 17.5235C12.3693 17.2464 11.7628 17.1053 11.1016 17.1053H6.41212C4.41083 17.1053 2.49241 15.9571 1.61046 14.179C1.43624 13.8263 1.03964 13.6422 0.655502 13.7293C0.271309 13.8189 0 14.1615 0 14.5565V21.3534C0 25.5699 3.48663 28.9999 7.70312 28.9999C11.4077 28.9999 13.496 27.3521 14.5 26.2063C15.504 27.3521 17.5923 28.9999 21.2969 28.9999C25.5134 28.9999 29 25.5699 29 21.3534V14.5565C29 14.1615 28.7287 13.8189 28.3446 13.7293ZM7.70312 25.6014C5.36087 25.6014 3.45508 23.6956 3.45508 21.3534C3.45508 20.8838 3.83508 20.5038 4.30469 20.5038H11.1016C11.5712 20.5038 11.9512 20.8838 11.9512 21.3534C11.9512 23.6956 10.0454 25.6014 7.70312 25.6014ZM21.2969 25.6014C18.9546 25.6014 17.0488 23.6956 17.0488 21.3534C17.0488 20.8838 17.4288 20.5038 17.8984 20.5038H24.6953C25.1649 20.5038 25.5449 20.8838 25.5449 21.3534C25.5449 23.6956 23.6391 25.6014 21.2969 25.6014Z" fill="white"/>
<path id="Vector_2" d="M28.15 6.28711C25.1422 6.28711 22.2772 7.35688 20.0488 9.17391L20.0317 9.1879C20.1379 10.7829 19.9916 12.7855 19.5791 15.4062H21.3252L21.7436 14.7832C22.6637 13.413 24.0152 12.3471 25.6142 11.798C27.6055 11.1209 28.9996 9.24749 28.9996 7.13672C28.9996 6.66711 28.6196 6.28711 28.15 6.28711Z" fill="white"/>
<path id="Vector_3" d="M13.6422 15.9929C13.9408 16.1298 14.2273 16.293 14.4986 16.4798C14.786 16.28 15.0913 16.1056 15.4105 15.9599C16.1955 15.5982 17.0189 15.4124 17.8585 15.4068C18.3314 12.482 18.4688 10.3388 18.2899 8.78168C18.0611 6.789 17.3342 5.94857 16.6928 5.20709C15.9702 4.37175 15.3462 3.65026 15.3462 0.849609C15.3462 0.380398 14.9658 0 14.4966 0C14.0274 0 13.647 0.380398 13.647 0.849609C13.647 3.64284 13.0236 4.35034 12.3018 5.16965C11.656 5.90275 10.9239 6.73366 10.6943 8.73217C10.5149 10.2944 10.6548 12.4533 11.134 15.4067C12.0399 15.4113 12.8835 15.6082 13.6422 15.9929Z" fill="white"/>
<path id="Vector_4" d="M0.849609 6.28711C3.8574 6.28711 6.72245 7.35688 8.95086 9.17391L8.96797 9.1879C8.86176 10.7829 9.00807 12.7855 9.42053 15.4062H7.67441L7.25606 14.7832C6.33593 13.413 4.98443 12.3471 3.38541 11.798C1.3941 11.1209 0 9.24749 0 7.13672C0 6.66711 0.380002 6.28711 0.849609 6.28711Z" fill="white"/>
</g>
</g>
<defs>
<clipPath id="clip0_2_548">
<rect width="29" height="29" fill="white"/>
</clipPath>
</defs>
</svg>
