<svg width="33" height="40" viewBox="0 0 33 40" fill="none" xmlns="http://www.w3.org/2000/svg">
<g id="Frame">
<path id="Vector" fill-rule="evenodd" clip-rule="evenodd" d="M15.5453 0.129062C14.983 0.409209 15.0001 0.217909 15.0001 6.22712C15.0001 12.2265 14.9992 12.2154 15.5438 13.2482C15.6946 13.5343 16.0497 14.024 16.3328 14.3364C16.6159 14.6487 16.8448 14.9382 16.8413 14.9795C16.8378 15.021 16.4962 15.355 16.082 15.7219C14.8125 16.8465 11.5773 20.1457 10.5007 21.4138C7.51584 24.9293 5.73353 27.9392 4.91843 30.841L4.70614 31.5969L4.75409 30.841C5.09983 25.3935 6.47895 18.6117 7.8739 15.4996C8.38284 14.3641 8.31933 13.5244 7.6705 12.81C6.7661 11.8141 5.33499 11.697 4.4569 12.547C4.02265 12.9672 3.6287 13.828 2.99359 15.7439C1.99849 18.7458 0.973924 22.9637 0.536154 25.8606C0.015862 29.3034 -0.160355 33.4697 0.161902 34.7097C0.740434 36.9359 2.30676 38.7483 4.31957 39.5206C5.58634 40.0067 5.22247 39.9949 19.0718 39.9982C33.245 40.0017 32.2654 40.0433 32.7377 39.4174C33.2254 38.7709 33.0144 37.6098 32.2592 36.784C31.9988 36.4992 31.5862 36.2387 30.6688 35.7799L29.4302 35.1604L28.1975 31.4221L26.9648 27.6838V21.8384V15.9931L27.2916 15.7018C29.0894 14.0994 29.7609 13.1054 29.9519 11.7643C30.003 11.405 30.0413 8.98759 30.0422 6.04729C30.0442 0.503482 30.0451 0.515754 29.5524 0.18936C29.4191 0.101047 29.1642 0.0287423 28.986 0.0287423C28.7018 0.0287423 28.3774 0.244411 26.3466 1.78327L24.0314 3.5377H22.5051H20.9788L18.8472 1.9172C16.1479 -0.134899 16.1131 -0.153754 15.5453 0.129062Z" fill="white" fill-opacity="0.25"/>
</g>
</svg>
