<svg width="173" height="511" viewBox="0 0 173 511" fill="none" xmlns="http://www.w3.org/2000/svg">
<path d="M86.7106 0.568329C85.5761 0.968567 83.4404 2.10254 81.9722 3.10312C80.4372 4.1037 78.4351 5.10428 77.434 5.37109C73.7634 6.30496 71.0938 14.9766 71.0938 26.1163C71.0938 30.9191 70.8269 33.7207 70.3597 34.0542C68.3576 35.2549 72.1617 51.2641 76.5664 59.9357C78.3683 63.4711 78.5685 64.4049 78.3016 69.0076C78.1014 73.8103 77.9679 74.344 75.5653 77.279C72.0282 81.5481 66.6224 85.0168 55.1434 90.4866C42.1294 96.6901 34.9884 100.292 33.9206 101.093C33.4534 101.493 31.9184 105.495 30.4502 109.964C27.9809 117.502 27.3135 121.371 25.7785 135.713C25.4448 138.848 24.7107 143.317 24.1768 145.718C23.4426 148.653 23.2424 151.788 23.5094 155.39L23.9098 160.727L21.3738 163.995C14.6999 172.8 12.6978 183.94 16.3684 192.212C18.2371 196.547 19.9722 198.148 24.11 199.683C29.7161 201.817 33.3867 202.017 39.0594 200.483C41.7957 199.749 44.1315 199.282 44.3318 199.482C44.4652 199.616 42.9302 205.553 40.8614 212.557C38.7925 219.627 36.9238 227.498 36.7236 230.1C36.4566 232.635 35.856 236.837 35.3888 239.439C34.9216 241.973 34.054 246.643 33.4534 249.778C32.9195 252.913 31.3178 261.385 29.983 268.722C27.3135 283.331 27.2467 282.797 31.8517 283.531C36.9905 284.398 36.9905 284.398 36.1897 299.807C35.6558 309.612 35.7225 310.479 37.2575 316.483C38.7257 322.019 38.9259 323.82 38.659 331.158C38.4588 335.761 38.0583 340.563 37.7247 341.831C36.7236 345.499 36.9238 347.234 38.7925 349.969L40.5277 352.504L38.7925 357.173C37.8581 359.841 36.6568 365.311 36.0562 369.713C35.4556 373.982 34.4545 379.586 33.7871 382.187C33.053 384.722 31.9852 390.459 31.3845 394.794C30.3834 401.732 30.3167 403.466 31.0508 408.269C32.1186 415.273 31.6515 424.278 29.1154 442.889C27.5137 454.629 27.3135 457.164 28.0476 458.564C28.7817 459.965 28.715 460.565 27.7139 462.367C26.7796 464.168 26.7128 465.101 27.2467 468.237L27.9141 471.972L24.6439 475.307C22.842 477.108 19.5718 479.91 17.4362 481.444C10.8291 486.113 8.96042 488.048 7.22522 491.65C6.09067 494.051 4.88938 495.452 3.22092 496.319C-0.983597 498.587 -1.11707 502.389 3.08744 503.857C11.1628 506.659 33.2532 501.322 36.2564 495.852C38.1251 492.317 39.5266 491.25 42.1961 491.25C45.1994 491.25 54.209 488.181 55.9442 486.58C56.9453 485.713 57.2123 483.979 57.4792 477.175C57.7462 472.306 58.2801 468.036 58.814 466.769C59.3479 465.635 59.7483 463.834 59.7483 462.833C59.7483 461.633 60.6827 459.832 62.4179 457.831C65.6213 454.028 65.688 453.428 63.4189 442.422C61.4835 433.016 61.4168 430.682 62.6848 426.146C63.7526 422.41 64.1531 420.209 67.6902 400.198C70.7601 383.121 72.1617 373.249 72.7623 364.844C73.096 360.708 73.7634 357.706 74.8312 355.238C76.9668 350.502 78.2348 345.499 79.1024 338.295C79.5696 334.293 80.4372 331.291 81.7052 328.623C84.4415 323.287 86.3769 316.55 87.378 309.145C88.1789 303.342 90.9151 292.536 92.5836 288.467C93.1842 286.866 93.251 286.866 94.1853 288.067C94.6525 288.8 95.2531 290.468 95.5201 291.735C96.9216 299.94 100.259 313.815 102.528 320.752C105.397 329.424 107.867 339.296 109.068 346.834C109.535 349.368 110.736 354.838 111.804 358.974C113.206 364.244 113.806 367.979 113.806 371.715C113.806 374.85 114.741 382.187 116.142 389.925C117.477 397.062 119.412 407.802 120.547 413.872C121.615 419.942 123.483 428.347 124.551 432.549C126.22 438.886 126.62 441.688 126.754 448.559C126.82 455.563 126.687 457.23 125.686 458.898C123.417 462.7 124.485 468.37 128.622 473.973C129.623 475.307 129.957 477.042 130.157 482.111C130.291 485.58 130.691 489.115 131.092 489.849C132.093 491.717 135.229 493.251 138.032 493.251C140.635 493.251 141.837 494.251 141.837 496.453C141.837 499.588 143.438 503.323 145.908 506.192C149.778 510.594 151.313 511.061 162.659 510.994C167.998 510.928 172.67 510.728 172.937 510.461C173.204 510.127 172.603 506.525 171.602 502.456C169.867 495.185 169.6 494.652 164.528 487.581C161.591 483.512 158.721 479.243 158.187 478.109C157.186 476.041 157.186 475.774 158.788 473.106C160.457 470.104 162.192 462.1 161.458 460.365C160.99 459.165 157.787 457.897 155.117 457.897C153.449 457.897 153.182 457.63 153.182 455.896C153.182 454.829 153.983 449.626 154.917 444.423C157.253 431.349 157.787 417.007 156.252 410.537C155.451 407.335 155.251 404.733 155.518 402.532C156.385 396.395 155.918 393.127 152.848 381.32C151.113 374.85 149.445 368.579 149.111 367.512C148.711 366.378 148.31 362.042 148.177 357.84C148.043 353.171 147.443 348.101 146.642 344.832L145.307 339.563L147.643 335.627C149.712 332.359 150.179 330.891 150.713 325.555C151.313 320.018 151.247 318.417 149.912 311.68L148.444 304.142L149.845 300.54C150.579 298.539 151.514 294.67 151.847 291.935C152.248 289.134 152.915 286.666 153.316 286.332C153.783 286.065 155.852 285.532 157.854 285.132C163.26 284.064 163.86 283.797 163.86 282.864C163.86 281.596 160.323 264.586 157.854 253.78C153.983 236.971 152.515 229.433 152.515 225.697C152.515 223.096 151.781 219.961 150.179 215.558C148.911 212.023 147.242 205.486 146.508 200.95C145.774 196.414 144.973 192.278 144.84 191.678C144.506 190.744 145.24 190.544 149.044 190.277C155.051 189.81 157.186 188.543 161.124 182.739C167.064 174.068 168.932 168.998 171.268 154.523C172.603 146.118 172.603 145.318 171.669 140.182C170.934 136.046 170.868 133.711 171.335 130.71C171.802 127.975 171.735 125.307 171.268 122.372C170.868 119.97 170.067 114.3 169.533 109.764C168.665 102.493 168.332 101.226 166.797 99.6252C164.327 97.0237 159.923 94.8891 150.846 91.6873C138.099 87.2847 129.824 82.9489 124.418 77.8793C120.347 74.0105 119.613 73.5435 117.811 73.877C116.142 74.2106 115.608 74.0105 114.674 72.4763C114.007 71.4757 112.939 70.275 112.205 69.7413C111.137 68.9409 111.003 68.2071 111.337 64.0714C111.537 61.4699 112.071 57.7345 112.472 55.8C113.139 52.7983 113.539 52.1313 115.208 51.5309C116.676 51.064 117.677 49.7299 119.479 46.1945C121.948 41.2583 122.349 38.5234 121.014 36.1221C120.48 35.1215 120.28 32.1865 120.347 27.317L120.547 19.9795L118.278 16.1773C111.404 4.90414 104.597 0.501648 93.4512 0.0346985C90.9151 -0.0987244 87.8452 0.168121 86.7106 0.568329Z" fill="white" fill-opacity="0.05"/>
</svg>
