<svg width="27" height="27" viewBox="0 0 27 27" fill="none" xmlns="http://www.w3.org/2000/svg">
<g opacity="0.25">
<path d="M21.5701 5.47449C19.7543 6.41026 18.0403 7.53158 16.4555 8.82049C15.9008 9.26503 15.211 9.50703 14.5001 9.50649C14.1001 9.50798 13.7037 9.43042 13.3337 9.27826C12.9637 9.12609 12.6274 8.90233 12.3441 8.61982C12.0332 8.2997 11.7945 7.91674 11.6439 7.49668C11.4933 7.07663 11.4344 6.6292 11.4711 6.18448C11.5078 5.73976 11.6392 5.30804 11.8566 4.91835C12.074 4.52865 12.3723 4.19 12.7315 3.92516C17.0155 0.667822 20.7488 -0.853511 22.0881 0.485823C22.3985 0.777711 22.632 1.14169 22.7679 1.54547C22.9039 1.94924 22.9381 2.38033 22.8675 2.80049C22.7275 3.57702 22.0527 4.48049 21.5701 5.47449Z" fill="white"/>
<path d="M8.82049 16.4553C7.53158 18.0401 6.41026 19.7541 5.47449 21.57C4.48049 22.0525 3.57702 22.7273 2.80049 22.8673C2.38033 22.9379 1.94924 22.9037 1.54547 22.7678C1.14169 22.6318 0.777711 22.3983 0.485823 22.088C-0.853511 20.7486 0.667822 17.0153 3.92516 12.7313C4.22138 12.3364 4.60534 12.0157 5.04672 11.7946C5.4881 11.5735 5.97483 11.458 6.46849 11.4573C6.86791 11.4554 7.26373 11.5328 7.63302 11.685C8.00231 11.8372 8.33772 12.0612 8.61982 12.3439C9.15179 12.8853 9.46619 13.6033 9.50319 14.3614C9.54019 15.1195 9.29721 15.8647 8.82049 16.4553Z" fill="white"/>
<path d="M21.9132 0.31163L26.3824 4.7809C28.2332 6.63216 24.8998 12.9672 18.9335 18.9335C12.9672 24.8998 6.63216 28.2332 4.78089 26.3824L0.311623 21.9132C1.16842 22.7695 2.99309 22.5166 5.29889 21.3952C7.96169 20.103 11.2652 17.6618 14.4642 14.4642C17.6632 11.2666 20.103 7.9617 21.3952 5.2989C22.5166 2.9931 22.7695 1.16843 21.9132 0.31163Z" fill="white"/>
<path d="M17.328 16.0072H16.4171C16.1908 16.0072 16.0073 16.1907 16.0073 16.417V17.3279C16.0073 17.5542 16.1908 17.7376 16.4171 17.7376H17.328C17.5543 17.7376 17.7377 17.5542 17.7377 17.3279V16.417C17.7377 16.1907 17.5543 16.0072 17.328 16.0072Z" fill="white"/>
<path d="M12.8586 19.7317H11.9477C11.7214 19.7317 11.5379 19.9151 11.5379 20.1414V21.0524C11.5379 21.2786 11.7214 21.4621 11.9477 21.4621H12.8586C13.0849 21.4621 13.2683 21.2786 13.2683 21.0524V20.1414C13.2683 19.9151 13.0849 19.7317 12.8586 19.7317Z" fill="white"/>
<path d="M8.38954 22.7114H7.4786C7.25232 22.7114 7.06887 22.8948 7.06887 23.1211V24.032C7.06887 24.2583 7.25232 24.4418 7.4786 24.4418H8.38954C8.61583 24.4418 8.79927 24.2583 8.79927 24.032V23.1211C8.79927 22.8948 8.61583 22.7114 8.38954 22.7114Z" fill="white"/>
<path d="M21.0517 11.5379H20.1408C19.9145 11.5379 19.7311 11.7213 19.7311 11.9476V12.8586C19.7311 13.0848 19.9145 13.2683 20.1408 13.2683H21.0517C21.278 13.2683 21.4615 13.0848 21.4615 12.8586V11.9476C21.4615 11.7213 21.278 11.5379 21.0517 11.5379Z" fill="white"/>
<path d="M24.0314 7.06916H23.1205C22.8942 7.06916 22.7108 7.25261 22.7108 7.4789V8.38983C22.7108 8.61612 22.8942 8.79956 23.1205 8.79956H24.0314C24.2577 8.79956 24.4412 8.61612 24.4412 8.38983V7.4789C24.4412 7.25261 24.2577 7.06916 24.0314 7.06916Z" fill="white"/>
</g>
</svg>
