<svg width="30" height="30" viewBox="0 0 30 30" fill="none" xmlns="http://www.w3.org/2000/svg">
<g id="Frame">
<path id="Vector" fill-rule="evenodd" clip-rule="evenodd" d="M11.4916 0.0648638C10.8857 0.150939 10.249 0.346174 9.6166 0.639731C8.11024 1.33905 6.89346 2.42082 5.74288 4.08366L5.26424 4.77543L9.33755 4.809C13.7655 4.8455 13.6034 4.83367 14.6407 5.19601L15.0887 5.35246L15.212 5.1857C16.0372 4.07007 16.8155 3.28221 17.5794 2.78932C18.3653 2.2823 19.427 1.93361 20.1849 1.93361C20.569 1.93361 20.8246 1.82568 21.0604 1.56394C21.4723 1.10696 21.3388 0.422698 20.782 0.135821L20.5184 0L16.1829 0.00714849C13.7983 0.0110743 11.6872 0.0370315 11.4916 0.0648638ZM23.2848 0.814752C23.3488 1.05329 23.18 1.79076 22.9617 2.22658C22.4708 3.20622 21.3948 3.86118 20.2667 3.86704C19.5104 3.87097 18.54 4.34886 17.8318 5.06605L17.6221 5.27846L17.7906 5.55432C18.1197 6.09327 18.8455 7.59679 19.0551 8.17389C19.7256 10.0201 20.038 11.6081 20.2021 14.004C20.3085 15.5582 20.4552 16.1288 20.967 16.9794C21.2943 17.5231 22.165 18.3295 22.7324 18.6142C24.0133 19.2569 25.3403 19.3625 26.6745 18.9278C28.2661 18.4092 29.3815 17.2144 29.8456 15.5312C29.9844 15.0275 30 14.8642 30 13.9161C30 12.7202 29.9001 11.8583 29.5857 10.3419C28.6929 6.03585 26.5732 2.59373 23.822 0.982624C23.5594 0.828932 23.3245 0.70313 23.2998 0.70313C23.2751 0.70313 23.2683 0.753345 23.2848 0.814752ZM3.36777 6.83243C2.4877 7.01343 1.48422 7.61256 0.944237 8.27936C0.549848 8.76639 0.371236 9.07964 0.16929 9.63874L0 10.1075V14.9122V19.7169L0.157383 20.1662C0.545097 21.2726 1.30495 22.1475 2.2994 22.6326C3.26914 23.1056 3.08602 23.0927 8.53969 23.0736L13.3508 23.0568L13.8319 22.8918C14.9108 22.5218 15.8048 21.7566 16.2997 20.7794C16.7557 19.8794 16.7464 20.0013 16.7476 14.9069C16.7486 10.5629 16.744 10.3722 16.627 9.92644C16.2361 8.43733 15.1222 7.31824 13.5913 6.87673C13.2609 6.7814 12.8321 6.7715 8.50962 6.75925C4.53674 6.74794 3.72204 6.75954 3.36777 6.83243ZM25.717 14.5623C26.0856 14.6847 26.3711 14.9283 26.5833 15.3015C26.7366 15.5713 26.7617 15.677 26.7615 16.0548C26.7614 16.5683 26.6004 16.9453 26.2552 17.2406C25.8995 17.5448 25.5736 17.6521 25.0852 17.6258C24.5909 17.5991 24.3117 17.4849 23.9932 17.1789C23.6823 16.8802 23.5244 16.5138 23.5214 16.0841C23.5181 15.6189 23.6278 15.3295 23.9281 15.0108C24.3924 14.518 25.071 14.3478 25.717 14.5623ZM19.8505 18.9938C19.728 19.5474 19.4292 20.721 19.3308 21.0353C19.0015 22.0862 18.372 23.4783 17.7885 24.4459L17.6221 24.7218L17.8318 24.9342C18.54 25.6514 19.5104 26.1293 20.2667 26.1332C21.3948 26.139 22.4708 26.794 22.9617 27.7736C23.18 28.2095 23.3488 28.9469 23.2848 29.1855C23.2683 29.2469 23.2751 29.2971 23.2998 29.2971C23.3245 29.2971 23.5594 29.1713 23.822 29.0176C25.9591 27.7661 27.6445 25.5287 28.8136 22.3908C29.0434 21.7742 29.6183 19.7602 29.6183 19.572C29.6183 19.5417 29.4085 19.6637 29.1522 19.8431C27.9412 20.6905 26.6272 21.0939 25.0778 21.0939C23.2092 21.0939 21.6454 20.4971 20.3444 19.2875C19.9141 18.8874 19.8787 18.8663 19.8505 18.9938ZM14.5536 24.6802C14.3882 24.7447 14.0093 24.8471 13.7116 24.9078C13.2133 25.0094 12.8547 25.0183 9.18618 25.019C6.99371 25.0194 5.202 25.0424 5.202 25.0703C5.202 25.1789 6.17714 26.5437 6.63534 27.0762C7.69029 28.3025 9.06831 29.2513 10.4173 29.6804C11.3793 29.9863 11.6235 29.9998 16.2335 30C20.4254 30.0002 20.5039 29.9981 20.7567 29.8789C21.3547 29.5968 21.4821 28.8245 21.0046 28.3758C20.7586 28.1445 20.5499 28.0666 20.1765 28.0666C19.5601 28.0666 18.6361 27.8059 17.9741 27.4452C17.108 26.9732 16.0457 25.9892 15.395 25.0557C15.1905 24.7624 15.0035 24.5535 14.9487 24.5569C14.8967 24.5603 14.7189 24.6157 14.5536 24.6802Z" fill="white" fill-opacity="0.25"/>
</g>
</svg>
