<svg width="41" height="40" viewBox="0 0 41 40" fill="none" xmlns="http://www.w3.org/2000/svg">
<g id="Frame 2">
<path id="image 3 (Traced)" fill-rule="evenodd" clip-rule="evenodd" d="M0 0.0257738C0 0.158151 0.630278 2.19553 0.901873 2.94109C1.34356 4.15368 2.48978 6.43143 3.20795 7.52368C4.58548 9.61867 5.32022 10.4371 9.96939 15.0548L13.62 18.6808L16.2037 16.109L18.7873 13.5371L14.7415 9.52909C12.5162 7.32459 10.3046 5.20385 9.82679 4.81629C7.31673 2.78018 4.20861 1.17038 1.05514 0.273313C0.00929354 -0.0241963 0 -0.0263481 0 0.0257738ZM40.2294 0.194971C36.8514 1.14663 33.9746 2.60844 31.2855 4.73954C30.6822 5.21772 27.3028 8.51845 20.5694 15.2062L10.7346 24.9744L9.44807 23.7008L8.16164 22.427L7.80512 22.8145C6.39355 24.3488 6.23932 26.7234 7.44171 28.4105C7.93235 29.0989 12.0701 33.1839 12.6305 33.5332C14.1074 34.4536 16.0812 34.4265 17.5244 33.4659C17.7784 33.2968 18.093 33.0472 18.2235 32.9112L18.4608 32.664L17.1829 31.3908L15.9048 30.1176L25.6038 20.4544C30.9381 15.1397 35.5194 10.5402 35.7843 10.2334C37.1141 8.69315 38.1593 7.11013 39.0992 5.21246C39.9403 3.51435 40.61 1.72468 40.9705 0.211468C41.0317 -0.0453957 41.0788 -0.0443596 40.2294 0.194971ZM24.7963 24.6982L22.2336 27.2483L23.6742 28.683L25.1148 30.1177L23.8338 31.3987L22.5528 32.6797L22.9778 33.0626C23.4627 33.4997 24.1949 33.8941 24.8368 34.064C25.4019 34.2136 26.5938 34.2136 27.1589 34.064C28.224 33.782 28.4896 33.5792 30.9142 31.1959C32.1967 29.9353 33.3576 28.7218 33.579 28.4105C34.1189 27.6511 34.3704 26.8425 34.3691 25.8698C34.3675 24.6713 33.9969 23.6759 33.2444 22.8497L32.8594 22.427L31.5717 23.7013L30.284 24.9756L28.8611 23.5618C28.0786 22.7843 27.4205 22.1481 27.3986 22.1481C27.3767 22.1481 26.2057 23.2957 24.7963 24.6982ZM3.62472 33.8043L0.800846 36.6142L2.50405 38.3071L4.20724 40L7.03632 37.1849L9.86548 34.3697L8.16901 32.6821C7.23589 31.7539 6.46709 30.9945 6.46053 30.9945C6.45396 30.9945 5.17786 32.2589 3.62472 33.8043ZM32.8236 32.6927L31.157 34.3725L33.9848 37.1862L36.8125 40L38.5157 38.3071L40.2189 36.6142L37.395 33.8043C35.8419 32.2589 34.5529 30.9986 34.5307 31.0037C34.5084 31.0087 33.7402 31.7688 32.8236 32.6927Z" fill="white" fill-opacity="0.25"/>
</g>
</svg>
