<svg width="39" height="30" viewBox="0 0 39 30" fill="none" xmlns="http://www.w3.org/2000/svg">
<g id="Frame">
<path id="Vector" fill-rule="evenodd" clip-rule="evenodd" d="M0.045733 0.886856C0.159875 3.09974 1.10992 5.03155 2.74391 6.37301C3.83244 7.26665 4.69673 7.65031 6.81407 8.17972C7.59883 8.37592 8.24153 8.57393 8.24237 8.61972C8.24602 8.82029 7.7457 10.6988 7.68855 10.6988C7.54618 10.6988 5.11571 10.0766 4.55025 9.89543C3.72926 9.63235 2.46677 8.98342 1.78252 8.47277L1.22148 8.05416L1.27444 8.47338C1.58757 10.9539 3.41689 13.313 5.80832 14.3202C6.10418 14.4448 7.02074 14.7181 7.84523 14.9274C8.66964 15.1368 9.35944 15.3226 9.37793 15.3403C9.43363 15.3934 8.90059 17.4774 8.83134 17.4774C8.64445 17.4774 5.91881 16.7647 5.46338 16.5968C4.68044 16.3081 3.94301 15.9298 3.26569 15.4695C2.93582 15.2453 2.65046 15.0772 2.63151 15.0959C2.56706 15.1598 2.91025 16.2607 3.20679 16.9416C4.36678 19.6048 6.50878 21.5037 9.3892 22.4228C10.8759 22.8972 11.3377 23.4335 11.4464 24.8122C11.5628 26.2885 12.0435 27.338 13.0745 28.3677C13.573 28.8654 13.8172 29.042 14.4062 29.3307C15.4245 29.8296 15.7791 29.9103 17.1658 29.9584L18.3671 30L18.3411 21.5357C18.3126 12.1978 18.3444 12.8296 17.826 11.2861C17.0669 9.02628 15.3827 6.96877 13.2921 5.74736C12.7216 5.41408 10.167 4.30843 0.601074 0.254722L0 0L0.045733 0.886856ZM32.5912 2.70478C29.0966 4.18408 25.9903 5.53798 25.6885 5.71346C24.1062 6.63338 22.5443 8.28704 21.7267 9.90801C21.4132 10.5295 21.0416 11.5828 20.8498 12.3935C20.6926 13.058 20.689 13.2379 20.6641 21.5357L20.6387 30L21.84 29.9609C22.7889 29.9301 23.1532 29.8869 23.574 29.7552C25.0691 29.2874 26.1768 28.3781 26.8785 27.0426C27.2455 26.3442 27.4123 25.7212 27.4866 24.7714C27.5921 23.4245 28.0663 22.8908 29.5863 22.4087C31.1806 21.9031 32.3863 21.1974 33.5678 20.0786C34.8463 18.8679 35.7806 17.3411 36.2445 15.7047C36.3343 15.3881 36.3934 15.115 36.3761 15.0977C36.3587 15.0805 36.0595 15.2551 35.7112 15.4859C34.5118 16.2805 33.7459 16.5873 31.6803 17.1003C30.8451 17.3077 30.1331 17.4774 30.098 17.4774C30.029 17.4774 29.4962 15.3933 29.5518 15.3403C29.5702 15.3226 30.2611 15.1365 31.0869 14.9268C32.8158 14.4878 33.4722 14.2372 34.2969 13.7013C36.0322 12.5737 37.2288 10.8515 37.6553 8.86751C37.841 8.00355 37.8442 8.00573 37.1394 8.52293C36.4669 9.01649 35.3541 9.60019 34.5957 9.85717C34.0941 10.0272 31.4471 10.6988 31.2788 10.6988C31.2123 10.6988 31.0937 10.358 30.9318 9.70089C30.7965 9.15198 30.6865 8.66476 30.6873 8.61814C30.6882 8.57129 31.3224 8.37644 32.1062 8.18235C33.8003 7.76284 34.4774 7.51444 35.3096 7.00756C36.9894 5.98438 38.2561 4.27747 38.7645 2.35185C38.8962 1.85295 39.0637 -0.00715519 38.9753 0.00956516C38.9588 0.0126532 36.0859 1.22556 32.5912 2.70478Z" fill="white" fill-opacity="0.25"/>
</g>
</svg>
